<?xml version="1.0" encoding="UTF-8" standalone="no"?>
<!DOCTYPE svg PUBLIC "-//W3C//DTD SVG 1.1//EN" "http://www.w3.org/Graphics/SVG/1.1/DTD/svg11.dtd">
<svg xmlns="http://www.w3.org/2000/svg" version="1.1" viewBox="0.00 0.00 500.00 174.00">
<g stroke-width="2.00" fill="none" stroke-linecap="butt">
<path stroke="#828b9a" vector-effect="non-scaling-stroke" d="
  M 203.23 16.57
  A 0.48 0.48 0.0 0 0 202.75 16.09
  L 200.71 16.09
  A 0.48 0.48 0.0 0 0 200.23 16.57
  L 200.23 153.39
  A 0.48 0.48 0.0 0 0 200.71 153.87
  L 202.75 153.87
  A 0.48 0.48 0.0 0 0 203.23 153.39
  L 203.23 16.57"
/>
<path stroke="#20519b" vector-effect="non-scaling-stroke" d="
  M 93.99 47.04
  L 95.24 54.43"
/>
<path stroke="#1d429b" vector-effect="non-scaling-stroke" d="
  M 95.24 54.43
  L 100.23 81.45"
/>
<path stroke="#20519b" vector-effect="non-scaling-stroke" d="
  M 100.23 81.45
  L 107.91 124.06"
/>
<path stroke="#246b9b" vector-effect="non-scaling-stroke" d="
  M 107.91 124.06
  Q 103.57 114.38 101.09 104.05"
/>
<path stroke="#245d93" vector-effect="non-scaling-stroke" d="
  M 101.09 104.05
  L 97.30 87.01
  A 0.01 0.01 0.0 0 0 97.29 87.00
  L 96.79 86.89
  A 0.21 0.21 0.0 0 0 96.54 87.12
  Q 97.10 92.54 97.07 93.75
  Q 96.80 104.61 97.63 119.68
  C 98.11 128.38 97.97 134.80 98.12 142.98
  C 98.18 146.95 98.72 150.07 103.02 150.70
  Q 105.97 151.12 124.64 153.87
  A 2.40 2.37 45.4 0 0 125.36 153.88
  Q 130.21 153.22 133.97 149.96
  Q 155.09 131.64 189.51 102.57
  A 1.07 1.05 -20.4 0 0 189.89 101.76
  L 189.89 89.86"
/>
<path stroke="#344c9b" vector-effect="non-scaling-stroke" d="
  M 189.89 89.86
  L 189.88 85.91"
/>
<path stroke="#3b3d9b" vector-effect="non-scaling-stroke" d="
  M 189.88 85.91
  L 189.83 76.80"
/>
<path stroke="#20519b" vector-effect="non-scaling-stroke" d="
  M 189.83 76.80
  L 189.91 72.06"
/>
<path stroke="#21589b" vector-effect="non-scaling-stroke" d="
  M 189.91 72.06
  L 189.93 64.94"
/>
<path stroke="#245d93" vector-effect="non-scaling-stroke" d="
  M 189.93 64.94
  L 189.82 58.77
  A 0.74 0.74 0.0 0 0 189.33 58.09
  L 131.16 37.04"
/>
<path stroke="#1d429b" vector-effect="non-scaling-stroke" d="
  M 131.16 37.04
  Q 140.35 37.60 149.37 40.32
  Q 157.90 42.89 166.34 45.68
  A 0.26 0.26 0.0 0 0 166.68 45.45
  L 166.70 45.13
  A 0.06 0.05 20.8 0 0 166.67 45.07
  L 147.23 34.69"
/>
<path stroke="#20519b" vector-effect="non-scaling-stroke" d="
  M 147.23 34.69
  L 125.99 23.15"
/>
<path stroke="#245d93" vector-effect="non-scaling-stroke" d="
  M 125.99 23.15
  L 113.57 16.49
  A 2.00 1.99 54.7 0 0 112.32 16.27
  Q 110.57 16.54 109.52 17.77
  Q 104.23 24.01 95.78 35.00
  Q 91.72 40.29 93.99 47.04"
/>
<path stroke="#348ef7" vector-effect="non-scaling-stroke" d="
  M 125.99 23.15
  L 117.67 23.62
  A 1.37 1.37 0.0 0 0 116.92 23.91
  L 114.55 25.83
  A 1.19 1.19 0.0 0 1 113.28 25.98
  Q 110.65 24.73 108.96 25.37
  Q 102.99 27.63 100.28 33.06
  Q 97.73 38.17 97.64 38.46
  Q 96.36 42.91 93.99 47.04"
/>
<path stroke="#2d73ff" vector-effect="non-scaling-stroke" d="
  M 147.23 34.69
  Q 140.55 33.19 134.03 31.23
  Q 130.48 30.16 118.58 29.24
  Q 113.31 28.83 108.57 33.01
  A 0.24 0.23 -49.7 0 1 108.30 33.04
  L 108.01 32.87
  A 0.04 0.04 0.0 0 1 108.00 32.81
  L 109.88 30.39
  A 0.41 0.41 0.0 0 0 109.35 29.79
  Q 105.70 31.89 103.70 35.49
  C 102.46 37.74 102.05 40.92 101.32 43.25
  A 12.88 4.49 -46.2 0 1 99.95 46.25
  L 95.24 54.43"
/>
<path stroke="#317ff7" vector-effect="non-scaling-stroke" d="
  M 131.16 37.04
  Q 118.41 33.55 112.19 43.74"
/>
<path stroke="#2d73ff" vector-effect="non-scaling-stroke" d="
  M 112.19 43.74
  L 111.14 45.41
  A 0.34 0.34 0.0 0 0 111.37 45.93
  L 115.08 46.56"
/>
<path stroke="#2750ff" vector-effect="non-scaling-stroke" d="
  M 115.08 46.56
  L 109.69 49.87"
/>
<path stroke="#2d73ff" vector-effect="non-scaling-stroke" d="
  M 109.69 49.87
  Q 107.93 57.62 106.29 70.77
  Q 105.51 76.96 100.23 81.45"
/>
<path stroke="#3595f7" vector-effect="non-scaling-stroke" d="
  M 189.93 64.94
  L 173.45 58.39
  A 0.41 0.41 0.0 0 0 172.90 58.83
  Q 173.02 59.62 174.44 60.81"
/>
<path stroke="#348ef7" vector-effect="non-scaling-stroke" d="
  M 174.44 60.81
  Q 171.32 59.27 168.43 57.36
  Q 164.42 54.71 162.56 53.77
  C 156.41 50.67 152.12 48.31 146.46 46.44
  A 0.34 0.34 0.0 0 0 146.02 46.85
  Q 146.52 48.81 147.68 50.63"
/>
<path stroke="#317ff7" vector-effect="non-scaling-stroke" d="
  M 147.68 50.63
  L 153.11 61.13
  A 0.27 0.26 -33.8 0 1 153.04 61.46
  L 152.83 61.63
  A 0.38 0.38 0.0 0 1 152.27 61.55
  Q 148.79 56.15 144.28 51.73"
/>
<path stroke="#348ef7" vector-effect="non-scaling-stroke" d="
  M 144.28 51.73
  Q 140.24 45.91 138.41 44.40
  Q 135.02 41.60 131.74 41.59
  Q 124.21 41.55 112.19 43.74"
/>
<path stroke="#3089ff" vector-effect="non-scaling-stroke" d="
  M 120.40 55.84
  C 114.97 69.09 114.25 81.49 113.67 96.16
  A 0.23 0.22 -28.9 0 0 114.09 96.28
  L 116.17 92.69
  A 0.32 0.32 0.0 0 1 116.61 92.57
  L 116.88 92.73
  A 0.41 0.40 29.2 0 1 117.04 93.27
  Q 113.39 100.02 114.78 108.88
  C 115.85 115.69 116.45 122.23 121.11 126.48"
/>
<path stroke="#349cff" vector-effect="non-scaling-stroke" d="
  M 121.11 126.48
  Q 121.71 128.79 123.27 130.79"
/>
<path stroke="#348ef7" vector-effect="non-scaling-stroke" d="
  M 123.27 130.79
  Q 123.81 132.81 124.99 134.39
  A 0.44 0.44 0.0 0 1 124.62 135.10
  L 119.18 134.80"
/>
<path stroke="#349cff" vector-effect="non-scaling-stroke" d="
  M 119.18 134.80
  Q 110.85 132.16 107.91 124.06"
/>
<path stroke="#1a2f9b" vector-effect="non-scaling-stroke" d="
  M 166.26 80.64
  L 127.57 59.84"
/>
<path stroke="#2a67ff" vector-effect="non-scaling-stroke" d="
  M 127.57 59.84
  L 120.40 55.84"
/>
<path stroke="#2960ff" vector-effect="non-scaling-stroke" d="
  M 120.40 55.84
  L 109.69 49.87"
/>
<path stroke="#2d73ff" vector-effect="non-scaling-stroke" d="
  M 144.28 51.73
  C 136.64 49.27 128.33 45.35 120.21 46.59"
/>
<path stroke="#2960ff" vector-effect="non-scaling-stroke" d="
  M 120.21 46.59
  Q 117.42 46.16 115.08 46.56"
/>
<path stroke="#2d73ff" vector-effect="non-scaling-stroke" d="
  M 147.68 50.63
  C 155.53 52.38 163.58 57.16 170.32 61.43
  Q 177.22 65.80 189.33 76.84"
/>
<path stroke="#485fff" vector-effect="non-scaling-stroke" d="
  M 189.33 76.84
  Q 184.25 80.21 179.52 83.28
  Q 178.40 84.01 175.32 85.26"
/>
<path stroke="#1d429b" vector-effect="non-scaling-stroke" d="
  M 175.32 85.26
  Q 170.21 84.14 166.26 80.64"
/>
<path stroke="#2750ff" vector-effect="non-scaling-stroke" d="
  M 166.26 80.64
  Q 153.09 64.11 137.65 53.83
  Q 130.34 48.96 120.21 46.59"
/>
<path stroke="#3089ff" vector-effect="non-scaling-stroke" d="
  M 174.44 60.81
  L 189.91 72.06"
/>
<path stroke="#4a6eff" vector-effect="non-scaling-stroke" d="
  M 189.83 76.80
  Q 188.52 76.74 189.33 76.84"
/>
<path stroke="#4897ff" vector-effect="non-scaling-stroke" d="
  M 128.84 113.71
  L 129.44 133.99"
/>
<path stroke="#38a8f7" vector-effect="non-scaling-stroke" d="
  M 129.44 133.99
  L 123.27 130.79"
/>
<path stroke="#38a8f7" vector-effect="non-scaling-stroke" d="
  M 101.09 104.05
  Q 100.68 107.34 101.45 110.90
  C 104.82 126.34 111.69 139.68 128.16 144.09
  A 1.53 1.53 0.0 0 0 129.42 143.87
  L 138.16 137.79
  A 0.38 0.37 21.0 0 0 137.86 137.12
  Q 128.97 139.10 120.39 136.64
  Q 119.27 136.32 119.18 134.80"
/>
<path stroke="#21589b" vector-effect="non-scaling-stroke" d="
  M 127.57 59.84
  L 127.61 70.04"
/>
<path stroke="#35a3ff" vector-effect="non-scaling-stroke" d="
  M 127.61 70.04
  Q 120.57 87.51 119.02 105.51
  Q 118.10 116.12 121.11 126.48"
/>
<path stroke="#3b3d9b" vector-effect="non-scaling-stroke" d="
  M 175.32 85.26
  L 136.95 108.92"
/>
<path stroke="#344c9b" vector-effect="non-scaling-stroke" d="
  M 136.95 108.92
  L 128.84 113.71"
/>
<path stroke="#246b9b" vector-effect="non-scaling-stroke" d="
  M 128.84 113.71
  L 127.61 70.04"
/>
<path stroke="#5e69ff" vector-effect="non-scaling-stroke" d="
  M 189.88 85.91
  Q 182.12 93.80 172.51 98.23
  Q 155.71 106.00 136.95 108.92"
/>
<path stroke="#4889f7" vector-effect="non-scaling-stroke" d="
  M 189.89 89.86
  L 179.60 102.83
  A 2.32 2.27 -74.9 0 1 178.16 103.68
  L 160.74 106.54
  A 0.02 0.02 0.0 0 1 160.72 106.52
  L 160.71 106.48
  A 0.15 0.15 0.0 0 0 160.85 106.63
  L 173.10 107.48
  A 0.58 0.58 0.0 0 1 173.47 108.47
  Q 164.00 117.63 158.92 121.42
  C 155.16 124.23 150.10 124.03 145.32 124.38
  A 0.23 0.23 0.0 0 0 145.28 124.84
  L 148.95 125.77
  A 0.31 0.31 0.0 0 1 149.01 126.35
  Q 139.77 130.82 129.44 133.99"
/>
<path stroke="#828b9a" vector-effect="non-scaling-stroke" d="
  M 250.35 41.38
  Q 253.30 46.35 255.23 49.53
  A 0.97 0.96 -15.3 0 0 256.06 50.00
  L 258.44 50.00
  A 0.51 0.50 -90.0 0 0 258.94 49.49
  L 258.94 31.55
  A 0.39 0.39 0.0 0 0 258.55 31.16
  L 256.00 31.16
  A 0.37 0.37 0.0 0 0 255.63 31.53
  L 255.63 43.18
  A 0.26 0.26 0.0 0 1 255.16 43.34
  Q 254.86 42.95 252.97 39.77
  Q 250.02 34.79 248.09 31.61
  A 0.97 0.96 -15.3 0 0 247.26 31.14
  L 244.88 31.14
  A 0.51 0.50 -90.0 0 0 244.38 31.65
  L 244.38 49.59
  A 0.39 0.39 0.0 0 0 244.77 49.98
  L 247.32 49.98
  A 0.37 0.37 0.0 0 0 247.69 49.61
  L 247.69 37.96
  A 0.26 0.26 0.0 0 1 248.16 37.81
  Q 248.47 38.20 250.35 41.38"
/>
<path stroke="#828b9a" vector-effect="non-scaling-stroke" d="
  M 289.74 33.86
  C 287.14 30.01 280.14 29.62 278.63 34.54
  C 276.85 40.32 283.44 40.99 286.49 43.12
  A 2.14 2.07 -57.5 0 1 287.06 45.91
  C 285.47 48.62 281.25 46.86 280.65 44.33
  A 0.46 0.46 0.0 0 0 280.13 43.98
  L 277.59 44.39
  A 0.52 0.52 0.0 0 0 277.18 45.05
  C 279.29 52.47 291.68 51.61 290.82 43.89
  C 290.44 40.41 286.85 39.48 282.95 37.62
  A 1.88 1.71 31.8 0 1 282.18 34.90
  C 283.54 33.26 285.58 33.83 286.77 35.58
  A 0.59 0.57 -33.0 0 0 287.56 35.74
  L 289.61 34.47
  A 0.44 0.43 -33.2 0 0 289.74 33.86"
/>
<path stroke="#828b9a" vector-effect="non-scaling-stroke" d="
  M 324.66 47.02
  Q 322.91 47.72 322.00 46.81
  A 0.87 0.85 -68.0 0 1 321.75 46.20
  L 321.75 40.02
  A 0.55 0.55 0.0 0 1 322.30 39.47
  L 324.33 39.47
  A 0.75 0.75 0.0 0 0 325.08 38.72
  L 325.08 37.32
  A 0.70 0.69 0.0 0 0 324.38 36.63
  L 322.26 36.63
  A 0.51 0.51 0.0 0 1 321.75 36.12
  L 321.75 31.87
  A 0.42 0.42 0.0 0 0 321.16 31.48
  Q 317.70 32.98 318.55 35.87
  A 0.64 0.64 0.0 0 1 317.93 36.69
  L 313.57 36.65
  A 0.81 0.80 88.0 0 1 312.78 35.91
  Q 312.76 35.54 313.07 34.48
  A 0.73 0.72 -81.2 0 1 313.76 33.97
  L 314.46 33.97
  A 1.13 1.12 12.3 0 0 315.48 33.32
  Q 315.79 32.64 315.89 31.79
  A 0.66 0.66 0.0 0 0 315.37 31.07
  Q 311.31 30.28 309.71 33.36
  A 1.35 1.21 63.7 0 0 309.57 33.86
  L 309.40 36.29
  A 0.35 0.35 0.0 0 1 309.05 36.62
  L 307.42 36.62
  A 0.40 0.39 0.0 0 0 307.02 37.01
  L 307.02 38.96
  A 0.52 0.52 0.0 0 0 307.54 39.48
  L 308.95 39.48
  A 0.45 0.44 90.0 0 1 309.39 39.93
  L 309.39 49.53
  A 0.47 0.46 0.0 0 0 309.86 49.99
  L 312.41 49.99
  A 0.44 0.43 90.0 0 0 312.84 49.55
  L 312.84 39.86
  A 0.42 0.41 -0.0 0 1 313.26 39.45
  L 318.04 39.45
  A 0.43 0.43 0.0 0 1 318.47 39.90
  C 318.38 41.58 318.49 43.76 318.44 45.70
  C 318.34 49.25 321.20 51.26 324.68 50.00
  A 0.63 0.62 -10.0 0 0 325.10 49.41
  L 325.10 47.32
  A 0.32 0.32 0.0 0 0 324.66 47.02"
/>
<path stroke="#828b9a" vector-effect="non-scaling-stroke" d="
  M 224.45 45.92
  Q 226.84 45.92 227.40 45.95
  A 0.92 0.90 80.2 0 1 228.21 46.53
  L 229.42 49.56
  A 0.72 0.71 -11.0 0 0 230.08 50.00
  L 232.74 50.00
  A 0.38 0.38 0.0 0 0 233.09 49.48
  L 226.04 31.83
  A 0.99 0.97 84.4 0 0 225.33 31.24
  Q 224.95 31.16 224.46 31.16
  Q 223.97 31.15 223.59 31.23
  A 0.99 0.97 -84.3 0 0 222.88 31.83
  L 215.81 49.47
  A 0.38 0.38 0.0 0 0 216.16 49.99
  L 218.82 49.99
  A 0.72 0.71 11.1 0 0 219.48 49.56
  L 220.70 46.53
  A 0.92 0.90 -80.1 0 1 221.51 45.94
  Q 222.07 45.92 224.45 45.92"
/>
<path stroke="#828b9a" vector-effect="non-scaling-stroke" d="
  M 375.36 44.49
  L 382.77 44.49
  A 1.43 1.43 0.0 0 0 384.10 42.53
  L 382.88 39.48
  A 4.74 4.73 84.3 0 0 379.33 36.57
  C 373.49 35.50 370.01 40.57 371.65 45.80
  C 373.17 50.65 379.47 51.82 383.08 48.28
  A 0.55 0.55 0.0 0 0 383.13 47.55
  Q 381.74 45.72 380.51 46.42
  C 378.39 47.63 375.65 47.70 374.90 45.10
  A 0.48 0.48 0.0 0 1 375.36 44.49"
/>
<path stroke="#828b9a" vector-effect="non-scaling-stroke" d="
  M 306.13 43.33
  A 6.89 6.89 0.0 0 0 299.24 36.44
  A 6.89 6.89 0.0 0 0 292.35 43.33
  A 6.89 6.89 0.0 0 0 299.24 50.22
  A 6.89 6.89 0.0 0 0 306.13 43.33"
/>
<path stroke="#828b9a" vector-effect="non-scaling-stroke" d="
  M 335.77 41.88
  Q 335.89 41.88 335.94 42.06
  Q 336.89 45.12 337.94 48.83
  A 1.98 1.98 0.0 0 0 341.73 48.87
  L 345.35 37.04
  A 0.32 0.32 0.0 0 0 345.05 36.62
  L 342.43 36.62
  A 0.52 0.51 -81.6 0 0 341.94 36.99
  L 339.73 44.20
  A 0.15 0.15 0.0 0 1 339.45 44.20
  L 337.40 37.26
  A 0.86 0.85 -4.8 0 0 336.68 36.65
  Q 336.52 36.63 335.77 36.63
  Q 335.02 36.63 334.86 36.65
  A 0.86 0.85 4.8 0 0 334.14 37.26
  L 332.09 44.20
  A 0.15 0.15 0.0 0 1 331.81 44.20
  L 329.60 36.99
  A 0.52 0.51 81.6 0 0 329.11 36.62
  L 326.49 36.62
  A 0.32 0.32 0.0 0 0 326.19 37.04
  L 329.80 48.87
  A 1.98 1.98 0.0 0 0 333.59 48.83
  Q 334.65 45.12 335.59 42.06
  Q 335.65 41.88 335.77 41.88"
/>
<path stroke="#828b9a" vector-effect="non-scaling-stroke" d="
  M 355.36 48.65
  Q 355.39 48.72 355.29 49.45
  A 0.49 0.49 0.0 0 0 355.78 50.00
  L 357.65 50.00
  A 0.49 0.49 0.0 0 0 358.14 49.52
  Q 358.23 43.08 358.06 41.50
  C 357.42 35.60 350.26 34.81 347.00 39.00
  A 0.54 0.54 0.0 0 0 347.16 39.80
  L 348.99 40.86
  A 0.60 0.58 -58.4 0 0 349.78 40.66
  Q 350.75 39.14 352.93 39.41
  A 2.04 2.03 -14.0 0 1 354.35 40.26
  L 354.76 40.86
  A 0.80 0.80 0.0 0 1 354.06 42.12
  C 351.22 41.96 346.89 41.79 346.35 45.07
  C 345.54 50.06 352.37 52.18 354.78 48.58
  A 0.33 0.33 0.0 0 1 355.36 48.65"
/>
<path stroke="#828b9a" vector-effect="non-scaling-stroke" d="
  M 364.60 38.12
  L 364.60 36.97
  A 0.35 0.35 0.0 0 0 364.25 36.62
  L 361.85 36.62
  A 0.47 0.47 0.0 0 0 361.38 37.09
  L 361.38 49.50
  A 0.49 0.49 0.0 0 0 361.87 49.99
  L 364.17 49.99
  A 0.52 0.52 0.0 0 0 364.69 49.44
  C 364.50 46.39 363.66 38.83 368.77 39.86
  A 0.83 0.82 15.6 0 0 369.71 39.34
  L 370.34 37.64
  A 0.57 0.57 0.0 0 0 370.07 36.94
  Q 366.93 35.32 364.98 38.24
  A 0.21 0.21 0.0 0 1 364.60 38.12"
/>
<path stroke="#1a2f9b" vector-effect="non-scaling-stroke" d="
  M 177.10 48.71
  A 0.34 0.34 0.0 0 0 177.08 49.35
  L 189.48 53.94
  A 0.34 0.34 0.0 0 0 189.94 53.62
  L 189.94 45.59
  A 0.34 0.34 0.0 0 0 189.51 45.26
  L 177.10 48.71"
/>
<path stroke="#828b9a" vector-effect="non-scaling-stroke" d="
  M 239.5224 46.8130
  A 0.38 0.38 0.0 0 0 239.1431 46.4323
  L 236.5231 46.4277
  A 0.38 0.38 0.0 0 0 236.1424 46.8071
  L 236.1376 49.6070
  A 0.38 0.38 0.0 0 0 236.5169 49.9877
  L 239.1369 49.9923
  A 0.38 0.38 0.0 0 0 239.5176 49.6129
  L 239.5224 46.8130"
/>
<path stroke="#828b9a" vector-effect="non-scaling-stroke" d="
  M 267.5151 46.8041
  A 0.39 0.39 0.0 0 0 267.1238 46.4155
  L 264.5238 46.4245
  A 0.39 0.39 0.0 0 0 264.1352 46.8159
  L 264.1449 49.5959
  A 0.39 0.39 0.0 0 0 264.5362 49.9845
  L 267.1362 49.9755
  A 0.39 0.39 0.0 0 0 267.5248 49.5841
  L 267.5151 46.8041"
/>
<path stroke="#1a2f9b" vector-effect="non-scaling-stroke" d="
  M 94.67 75.31
  A 0.32 0.32 0.0 0 0 95.21 75.02
  L 91.34 53.06
  A 0.32 0.32 0.0 0 0 90.73 52.98
  L 84.70 65.36
  A 0.32 0.32 0.0 0 0 84.76 65.73
  L 94.67 75.31"
/>
<path stroke="#828b9a" vector-effect="non-scaling-stroke" d="
  M 228.74 60.86
  C 226.14 57.02 219.15 56.62 217.64 61.54
  C 215.85 67.32 222.44 67.99 225.49 70.12
  A 2.14 2.07 -57.5 0 1 226.06 72.91
  C 224.47 75.61 220.25 73.85 219.65 71.33
  A 0.46 0.46 0.0 0 0 219.13 70.98
  L 216.59 71.38
  A 0.52 0.52 0.0 0 0 216.18 72.04
  C 218.29 79.46 230.67 78.61 229.82 70.89
  C 229.44 67.41 225.85 66.48 221.95 64.62
  A 1.87 1.71 31.9 0 1 221.18 61.90
  C 222.54 60.26 224.58 60.83 225.77 62.58
  A 0.59 0.57 -32.9 0 0 226.56 62.74
  L 228.61 61.47
  A 0.44 0.43 -33.1 0 0 228.74 60.86"
/>
<path stroke="#828b9a" vector-effect="non-scaling-stroke" d="
  M 274.3062 58.4991
  A 0.34 0.34 0.0 0 0 273.9680 58.1574
  L 271.1680 58.1427
  A 0.34 0.34 0.0 0 0 270.8263 58.4809
  L 270.8138 60.8609
  A 0.34 0.34 0.0 0 0 271.1520 61.2026
  L 273.9520 61.2173
  A 0.34 0.34 0.0 0 0 274.2937 60.8791
  L 274.3062 58.4991"
/>
<path stroke="#828b9a" vector-effect="non-scaling-stroke" d="
  M 235.61 71.48
  L 243.00 71.49
  A 1.43 1.43 0.0 0 0 244.34 69.54
  L 243.12 66.49
  A 4.73 4.72 84.4 0 0 239.59 63.58
  C 233.76 62.50 230.27 67.55 231.90 72.78
  C 233.41 77.62 239.70 78.80 243.31 75.28
  A 0.55 0.55 0.0 0 0 243.36 74.55
  Q 241.97 72.72 240.74 73.41
  C 238.63 74.62 235.89 74.68 235.15 72.09
  A 0.48 0.47 -8.1 0 1 235.61 71.48"
/>
<path stroke="#828b9a" vector-effect="non-scaling-stroke" d="
  M 249.84 64.92
  Q 249.83 64.91 249.91 64.17
  A 0.50 0.49 -86.9 0 0 249.42 63.62
  L 247.04 63.62
  A 0.42 0.42 0.0 0 0 246.62 64.04
  L 246.62 76.50
  A 0.50 0.49 0.0 0 0 247.12 76.99
  L 249.42 76.99
  A 0.51 0.51 0.0 0 0 249.93 76.43
  C 249.67 73.53 248.99 66.39 253.52 66.76
  Q 254.60 66.85 254.86 66.48
  Q 255.24 65.94 255.37 65.08
  A 0.41 0.41 0.0 0 1 256.16 64.99
  L 260.58 76.05
  A 2.06 2.06 0.0 0 0 264.43 76.00
  L 268.88 63.95
  A 0.25 0.25 0.0 0 0 268.65 63.62
  L 266.05 63.62
  A 0.52 0.51 9.5 0 0 265.56 63.96
  L 262.61 71.93
  A 0.15 0.14 -46.5 0 1 262.34 71.94
  L 259.13 63.92
  A 0.56 0.54 -11.4 0 0 258.58 63.57
  L 255.26 63.76
  A 0.47 0.44 -35.3 0 1 255.05 63.73
  Q 251.96 62.65 250.51 64.95
  A 0.39 0.38 -42.0 0 1 249.84 64.92"
/>
<path stroke="#828b9a" vector-effect="non-scaling-stroke" d="
  M 274.20 63.97
  A 0.34 0.34 0.0 0 0 273.86 63.63
  L 271.24 63.63
  A 0.34 0.34 0.0 0 0 270.90 63.97
  L 270.90 76.65
  A 0.34 0.34 0.0 0 0 271.24 76.99
  L 273.86 76.99
  A 0.34 0.34 0.0 0 0 274.20 76.65
  L 274.20 63.97"
/>
<path stroke="#828b9a" vector-effect="non-scaling-stroke" d="
  M 276.78 70.26
  C 276.70 77.27 285.51 80.22 288.63 73.86
  A 0.55 0.54 -66.7 0 0 288.33 73.11
  L 286.17 72.31
  A 0.59 0.58 -69.3 0 0 285.43 72.65
  Q 284.60 74.75 282.21 74.05
  C 280.64 73.59 280.11 71.77 280.12 70.30
  C 280.14 68.83 280.72 67.03 282.30 66.60
  Q 284.71 65.96 285.49 68.08
  A 0.59 0.58 70.7 0 0 286.22 68.44
  L 288.40 67.69
  A 0.55 0.54 68.1 0 0 288.71 66.95
  C 285.75 60.51 276.87 63.25 276.78 70.26"
/>
<path stroke="#828b9a" vector-effect="non-scaling-stroke" d="
  M 294.37 71.49
  L 301.77 71.49
  A 1.43 1.43 0.0 0 0 303.10 69.53
  L 301.88 66.48
  A 4.73 4.73 0.0 0 0 298.33 63.58
  C 292.49 62.51 289.02 67.58 290.66 72.80
  C 292.18 77.65 298.48 78.81 302.08 75.27
  A 0.55 0.55 0.0 0 0 302.13 74.54
  Q 300.74 72.72 299.51 73.42
  C 297.39 74.63 294.66 74.70 293.91 72.10
  A 0.48 0.47 -8.2 0 1 294.37 71.49"
/>
<path stroke="#828b9a" vector-effect="non-scaling-stroke" d="
  M 312.62 67.51
  L 314.47 66.77
  A 0.63 0.63 0.0 0 0 314.73 65.79
  C 312.00 62.40 305.03 62.33 305.06 67.73
  C 305.08 70.65 308.02 71.23 310.58 71.84
  A 1.25 1.25 0.0 0 1 310.77 74.21
  Q 308.36 75.21 306.82 72.71
  A 0.41 0.40 63.4 0 0 306.32 72.54
  L 304.38 73.31
  A 0.43 0.42 -26.5 0 0 304.17 73.92
  Q 306.59 78.00 311.04 77.08
  Q 314.95 76.28 314.83 72.50
  C 314.73 69.52 311.54 68.81 308.85 67.99
  A 0.80 0.80 0.0 0 1 308.50 66.67
  C 309.78 65.31 311.17 66.24 312.13 67.39
  A 0.43 0.42 -31.1 0 0 312.62 67.51"
/>
<path stroke="#246b9b" vector-effect="non-scaling-stroke" d="
  M 314.14 101.21
  C 311.44 100.10 306.15 100.06 306.26 104.09
  C 306.32 106.48 309.22 106.85 311.39 107.42
  A 0.74 0.73 46.3 0 1 311.36 108.85
  Q 309.58 109.21 307.70 108.20
  A 0.80 0.79 21.4 0 0 306.55 108.70
  L 306.35 109.52
  A 0.84 0.83 -72.0 0 0 306.84 110.50
  C 309.06 111.40 314.07 111.82 314.78 108.76
  C 315.63 105.11 311.85 105.10 309.62 104.29
  A 0.70 0.70 0.0 0 1 309.74 102.95
  Q 311.52 102.65 313.58 103.52
  A 0.19 0.19 0.0 0 0 313.84 103.39
  L 314.31 101.55
  A 0.30 0.29 18.8 0 0 314.14 101.21"
/>
<path stroke="#246b9b" vector-effect="non-scaling-stroke" d="
  M 381.75 105.63
  A 0.60 0.60 0.0 0 0 381.15 106.23
  L 381.15 107.97
  A 0.70 0.70 0.0 0 1 380.50 108.67
  C 373.89 109.12 376.88 100.41 381.64 103.67
  A 1.07 1.06 32.2 0 0 383.16 103.33
  L 383.52 102.71
  A 0.69 0.68 -56.9 0 0 383.34 101.82
  C 379.39 98.89 373.25 101.09 373.87 106.66
  C 374.39 111.27 379.54 112.06 383.25 110.22
  A 0.88 0.87 77.1 0 0 383.74 109.43
  L 383.74 106.15
  A 0.53 0.52 0.0 0 0 383.21 105.63
  L 381.75 105.63"
/>
<path stroke="#246b9b" vector-effect="non-scaling-stroke" d="
  M 221.26 111.21
  C 227.17 111.21 226.17 105.33 226.10 101.20
  A 0.51 0.50 -0.3 0 0 225.59 100.71
  L 223.69 100.71
  A 0.51 0.51 0.0 0 0 223.18 101.20
  Q 223.13 103.27 223.22 105.77
  Q 223.33 108.69 221.26 108.68
  Q 219.20 108.68 219.31 105.76
  Q 219.40 103.27 219.36 101.20
  A 0.51 0.51 0.0 0 0 218.85 100.70
  L 216.95 100.70
  A 0.51 0.50 0.4 0 0 216.44 101.19
  C 216.36 105.32 215.35 111.20 221.26 111.21"
/>
<path stroke="#246b9b" vector-effect="non-scaling-stroke" d="
  M 235.25 101.99
  L 235.25 110.45
  A 0.55 0.55 0.0 0 0 235.80 111.00
  L 237.60 111.00
  A 0.53 0.53 0.0 0 0 238.13 110.47
  L 238.13 106.36
  A 0.32 0.31 25.8 0 1 238.69 106.17
  L 242.35 110.68
  A 1.53 1.52 -64.5 0 0 245.06 109.72
  L 245.06 101.25
  A 0.54 0.53 0.0 0 0 244.52 100.72
  L 242.70 100.72
  A 0.53 0.53 0.0 0 0 242.17 101.25
  L 242.17 105.35
  A 0.32 0.31 25.8 0 1 241.61 105.54
  L 237.95 101.03
  A 1.52 1.52 0.0 0 0 235.25 101.99"
/>
<path stroke="#246b9b" vector-effect="non-scaling-stroke" d="
  M 261.88 111.00
  A 0.48 0.48 0.0 0 0 262.36 110.52
  L 262.36 109.16
  A 0.48 0.48 0.0 0 0 261.88 108.68
  L 257.92 108.68
  A 0.48 0.48 0.0 0 1 257.44 108.20
  L 257.44 101.18
  A 0.48 0.48 0.0 0 0 256.96 100.70
  L 254.99 100.70
  A 0.48 0.48 0.0 0 0 254.51 101.18
  L 254.51 110.52
  A 0.48 0.48 0.0 0 0 254.99 111.00
  L 261.88 111.00"
/>
<path stroke="#246b9b" vector-effect="non-scaling-stroke" d="
  M 270.78 105.86
  Q 270.81 109.63 270.82 110.28
  A 0.73 0.72 89.5 0 0 271.54 111.00
  L 278.26 111.00
  A 0.74 0.74 0.0 0 0 279.00 110.26
  L 279.00 109.36
  A 0.67 0.66 -90.0 0 0 278.34 108.69
  L 274.38 108.69
  A 0.77 0.77 0.0 0 1 273.61 107.92
  L 273.61 107.60
  A 0.67 0.67 0.0 0 1 274.28 106.93
  L 277.41 106.93
  A 0.78 0.77 15.4 0 0 278.08 106.55
  Q 278.26 106.24 278.26 105.81
  Q 278.26 105.39 278.07 105.08
  A 0.78 0.77 -16.2 0 0 277.39 104.71
  L 274.27 104.75
  A 0.67 0.67 0.0 0 1 273.59 104.09
  L 273.58 103.77
  A 0.77 0.77 0.0 0 1 274.34 102.99
  L 278.30 102.94
  A 0.67 0.66 89.2 0 0 278.95 102.26
  L 278.94 101.36
  A 0.74 0.74 0.0 0 0 278.19 100.63
  L 271.47 100.72
  A 0.73 0.72 89.7 0 0 270.76 101.45
  Q 270.76 102.10 270.78 105.86"
/>
<path stroke="#246b9b" vector-effect="non-scaling-stroke" d="
  M 292.75 108.98
  Q 294.20 108.98 294.46 109.00
  A 0.80 0.79 87.0 0 1 295.20 109.67
  Q 295.49 111.55 298.05 110.98
  A 0.37 0.37 0.0 0 0 298.32 110.48
  L 294.69 101.39
  A 1.01 1.00 -6.2 0 0 293.92 100.78
  Q 293.41 100.70 292.75 100.70
  Q 292.10 100.70 291.58 100.78
  A 1.01 1.00 6.2 0 0 290.82 101.39
  L 287.18 110.48
  A 0.37 0.37 0.0 0 0 287.45 110.98
  Q 290.01 111.55 290.31 109.67
  A 0.80 0.79 -87.0 0 1 291.05 109.00
  Q 291.31 108.98 292.75 108.98"
/>
<path stroke="#246b9b" vector-effect="non-scaling-stroke" d="
  M 323.77 105.83
  Q 323.77 110.20 323.78 110.39
  A 0.57 0.57 0.0 0 0 324.35 110.96
  L 326.15 110.99
  A 0.63 0.62 88.4 0 0 326.79 110.31
  L 326.60 107.96
  A 0.77 0.77 0.0 0 1 327.26 107.14
  Q 327.95 107.04 328.67 107.04
  Q 329.38 107.04 330.08 107.14
  A 0.77 0.77 0.0 0 1 330.74 107.96
  L 330.55 110.31
  A 0.63 0.62 -88.4 0 0 331.19 110.99
  L 332.99 110.96
  A 0.57 0.57 0.0 0 0 333.56 110.39
  Q 333.56 110.20 333.56 105.83
  Q 333.56 101.45 333.56 101.26
  A 0.57 0.57 0.0 0 0 332.98 100.70
  L 331.18 100.67
  A 0.63 0.62 88.4 0 0 330.54 101.35
  L 330.73 103.70
  A 0.77 0.77 0.0 0 1 330.08 104.52
  Q 329.38 104.62 328.67 104.62
  Q 327.95 104.62 327.26 104.52
  A 0.77 0.77 0.0 0 1 326.60 103.70
  L 326.79 101.35
  A 0.63 0.62 -88.4 0 0 326.15 100.67
  L 324.35 100.70
  A 0.57 0.57 0.0 0 0 323.78 101.27
  Q 323.77 101.46 323.77 105.83"
/>
<path stroke="#246b9b" vector-effect="non-scaling-stroke" d="
  M 345.68 101.14
  A 0.46 0.46 0.0 0 0 345.22 100.68
  L 343.26 100.68
  A 0.46 0.46 0.0 0 0 342.80 101.14
  L 342.80 110.54
  A 0.46 0.46 0.0 0 0 343.26 111.00
  L 345.22 111.00
  A 0.46 0.46 0.0 0 0 345.68 110.54
  L 345.68 101.14"
/>
<path stroke="#246b9b" vector-effect="non-scaling-stroke" d="
  M 362.45 100.72
  A 0.53 0.53 0.0 0 0 361.92 101.25
  L 361.92 105.45
  A 0.28 0.27 25.7 0 1 361.43 105.62
  L 357.70 101.02
  A 1.51 1.51 0.0 0 0 355.01 101.97
  L 355.01 110.53
  A 0.47 0.46 90.0 0 0 355.47 111.00
  L 357.37 111.00
  A 0.52 0.52 0.0 0 0 357.89 110.48
  L 357.89 106.28
  A 0.28 0.27 -64.7 0 1 358.38 106.10
  L 362.08 110.67
  A 1.54 1.54 0.0 0 0 364.81 109.70
  L 364.81 101.23
  A 0.51 0.51 0.0 0 0 364.30 100.72
  L 362.45 100.72"
/>
<path stroke="#245d93" vector-effect="non-scaling-stroke" d="
  M 168.15 126.60
  A 0.06 0.06 0.0 0 0 168.22 126.70
  L 189.73 113.38
  A 0.48 0.48 0.0 0 0 189.96 112.97
  L 189.96 105.18
  A 0.16 0.16 0.0 0 0 189.69 105.06
  L 168.15 126.60"
/>
<path stroke="#246b9b" vector-effect="non-scaling-stroke" d="
  M 277.92 125.87
  A 5.72 5.36 0.0 0 0 272.20 120.51
  A 5.72 5.36 0.0 0 0 266.48 125.87
  A 5.72 5.36 0.0 0 0 272.20 131.23
  A 5.72 5.36 0.0 0 0 277.92 125.87"
/>
<path stroke="#246b9b" vector-effect="non-scaling-stroke" d="
  M 364.1700 125.8600
  A 5.72 5.36 -0.1 0 0 358.4406 120.5100
  A 5.72 5.36 -0.1 0 0 352.7300 125.8800
  A 5.72 5.36 -0.1 0 0 358.4594 131.2300
  A 5.72 5.36 -0.1 0 0 364.1700 125.8600"
/>
<path stroke="#246b9b" vector-effect="non-scaling-stroke" d="
  M 219.4317 121.0975
  A 0.39 0.39 0.0 0 0 219.0410 120.7081
  L 216.9010 120.7119
  A 0.39 0.39 0.0 0 0 216.5117 121.1026
  L 216.5283 130.6025
  A 0.39 0.39 0.0 0 0 216.9190 130.9919
  L 219.0590 130.9881
  A 0.39 0.39 0.0 0 0 219.4483 130.5974
  L 219.4317 121.0975"
/>
<path stroke="#246b9b" vector-effect="non-scaling-stroke" d="
  M 236.19 120.71
  A 0.53 0.53 0.0 0 0 235.66 121.24
  L 235.67 125.44
  A 0.28 0.27 25.6 0 1 235.18 125.62
  L 231.44 121.02
  A 1.52 1.51 25.3 0 0 228.75 121.98
  L 228.77 130.55
  A 0.47 0.46 89.8 0 0 229.23 131.02
  L 231.13 131.01
  A 0.52 0.52 0.0 0 0 231.65 130.49
  L 231.64 126.29
  A 0.28 0.27 -64.9 0 1 232.13 126.10
  L 235.85 130.67
  A 1.54 1.54 0.0 0 0 238.58 129.69
  L 238.55 121.21
  A 0.51 0.51 0.0 0 0 238.04 120.70
  L 236.19 120.71"
/>
<path stroke="#246b9b" vector-effect="non-scaling-stroke" d="
  M 255.45 120.72
  A 0.53 0.53 0.0 0 0 254.92 121.25
  L 254.92 125.45
  A 0.28 0.27 25.7 0 1 254.43 125.62
  L 250.71 121.02
  A 1.51 1.51 0.0 0 0 248.02 121.97
  L 248.02 130.52
  A 0.47 0.46 -90.0 0 0 248.47 130.99
  L 250.37 130.99
  A 0.52 0.52 0.0 0 0 250.89 130.47
  L 250.89 126.28
  A 0.28 0.27 -64.7 0 1 251.38 126.10
  L 255.08 130.66
  A 1.54 1.53 -64.5 0 0 257.80 129.69
  L 257.81 121.23
  A 0.51 0.51 0.0 0 0 257.30 120.72
  L 255.45 120.72"
/>
<path stroke="#246b9b" vector-effect="non-scaling-stroke" d="
  M 291.37 131.01
  Q 292.31 131.02 292.36 131.01
  A 1.00 0.98 -83.3 0 0 293.07 130.44
  L 297.05 121.25
  A 0.39 0.39 0.0 0 0 296.69 120.71
  L 294.76 120.73
  A 0.84 0.84 0.0 0 0 293.98 121.26
  Q 293.85 121.60 291.66 126.77
  Q 291.59 126.95 291.39 126.95
  Q 291.20 126.94 291.12 126.76
  Q 288.99 121.58 288.86 121.24
  A 0.84 0.84 0.0 0 0 288.08 120.70
  L 286.15 120.66
  A 0.39 0.39 0.0 0 0 285.79 121.20
  L 289.68 130.42
  A 1.00 0.98 83.9 0 0 290.38 131.00
  Q 290.44 131.01 291.37 131.01"
/>
<path stroke="#246b9b" vector-effect="non-scaling-stroke" d="
  M 310.25 128.96
  Q 311.69 128.96 311.95 128.98
  A 0.80 0.79 86.9 0 1 312.69 129.65
  Q 312.99 131.52 315.54 130.95
  A 0.37 0.37 0.0 0 0 315.81 130.45
  L 312.17 121.39
  A 1.00 1.00 0.0 0 0 311.41 120.78
  Q 310.90 120.69 310.24 120.69
  Q 309.58 120.70 309.07 120.78
  A 1.00 1.00 0.0 0 0 308.31 121.39
  L 304.70 130.47
  A 0.37 0.37 0.0 0 0 304.97 130.96
  Q 307.52 131.53 307.81 129.65
  A 0.80 0.79 -87.1 0 1 308.55 128.98
  Q 308.81 128.97 310.25 128.96"
/>
<path stroke="#246b9b" vector-effect="non-scaling-stroke" d="
  M 327.91 131.02
  Q 328.66 131.02 328.85 131.01
  A 0.58 0.58 0.0 0 0 329.39 130.43
  L 329.39 123.61
  A 0.56 0.56 0.0 0 1 329.95 123.05
  L 331.80 123.05
  A 0.79 0.78 -0.0 0 0 332.59 122.27
  L 332.59 121.56
  A 0.86 0.85 89.8 0 0 331.73 120.70
  Q 330.11 120.71 327.92 120.69
  Q 325.72 120.71 324.10 120.70
  A 0.86 0.85 -89.8 0 0 323.24 121.56
  L 323.24 122.27
  A 0.79 0.78 0.1 0 0 324.03 123.05
  L 325.88 123.05
  A 0.56 0.56 0.0 0 1 326.44 123.61
  L 326.43 130.43
  A 0.58 0.58 0.0 0 0 326.97 131.01
  Q 327.17 131.02 327.91 131.02"
/>
<path stroke="#246b9b" vector-effect="non-scaling-stroke" d="
  M 343.9380 121.2725
  A 0.59 0.59 0.0 0 0 343.3490 120.6815
  L 341.6290 120.6785
  A 0.59 0.59 0.0 0 0 341.0380 121.2675
  L 341.0220 130.3875
  A 0.59 0.59 0.0 0 0 341.6110 130.9785
  L 343.3310 130.9815
  A 0.59 0.59 0.0 0 0 343.9220 130.3925
  L 343.9380 121.2725"
/>
<path stroke="#246b9b" vector-effect="non-scaling-stroke" d="
  M 380.45 120.72
  A 0.53 0.53 0.0 0 0 379.92 121.25
  L 379.92 125.45
  A 0.28 0.27 25.7 0 1 379.43 125.62
  L 375.70 121.02
  A 1.51 1.51 0.0 0 0 373.01 121.97
  L 373.01 130.52
  A 0.47 0.46 -90.0 0 0 373.47 130.99
  L 375.37 130.99
  A 0.52 0.52 0.0 0 0 375.89 130.47
  L 375.89 126.28
  A 0.28 0.27 -64.7 0 1 376.38 126.10
  L 380.08 130.66
  A 1.54 1.54 0.0 0 0 382.81 129.70
  L 382.81 121.23
  A 0.51 0.51 0.0 0 0 382.30 120.72
  L 380.45 120.72"
/>
<path stroke="#1a2f9b" vector-effect="non-scaling-stroke" d="
  M 156.49 146.73
  A 0.32 0.32 0.0 0 0 156.78 146.49
  L 160.05 133.51
  A 0.32 0.32 0.0 0 0 159.54 133.19
  L 142.10 147.33
  A 0.32 0.32 0.0 0 0 142.32 147.89
  L 156.49 146.73"
/>
<path stroke="#828b9a" vector-effect="non-scaling-stroke" d="
  M 316.04 37.79
  Q 315.97 37.89 315.97 38.45
  A 0.31 0.30 62.9 0 0 316.52 38.63
  Q 316.80 38.24 316.72 37.93
  A 0.39 0.38 56.4 0 0 316.04 37.79"
/>
<path stroke="#828b9a" vector-effect="non-scaling-stroke" d="
  M 222.17 42.59
  A 0.32 0.32 0.0 0 0 222.47 43.02
  L 226.49 43.02
  A 0.32 0.32 0.0 0 0 226.79 42.59
  L 224.78 37.07
  A 0.32 0.32 0.0 0 0 224.18 37.07
  L 222.17 42.59"
/>
<path stroke="#828b9a" vector-effect="non-scaling-stroke" d="
  M 375.01 42.08
  L 380.43 42.04
  A 0.14 0.14 0.0 0 0 380.57 41.90
  L 380.57 41.82
  A 2.71 2.58 -0.4 0 0 377.84 39.26
  L 377.56 39.26
  A 2.71 2.58 -0.4 0 0 374.87 41.86
  L 374.87 41.94
  A 0.14 0.14 0.0 0 0 375.01 42.08"
/>
<path stroke="#828b9a" vector-effect="non-scaling-stroke" d="
  M 299.2400 39.2600
  A 4.09 3.43 -90.0 0 0 295.8100 43.3500
  A 4.09 3.43 -90.0 0 0 299.2400 47.4400
  A 4.09 3.43 -90.0 0 0 302.6700 43.3500
  A 4.09 3.43 -90.0 0 0 299.2400 39.2600"
/>
<path stroke="#828b9a" vector-effect="non-scaling-stroke" d="
  M 354.23 44.40
  Q 351.73 44.37 350.56 44.74
  A 1.30 1.27 -29.9 0 0 349.96 46.83
  C 351.41 48.38 354.26 46.86 354.75 45.09
  A 0.55 0.55 0.0 0 0 354.23 44.40"
/>
<path stroke="#21589b" vector-effect="non-scaling-stroke" d="
  M 140.84 93.49
  Q 141.28 94.08 142.16 94.18
  A 1.59 1.57 33.0 0 0 143.13 93.98
  Q 149.44 90.31 154.94 86.67
  A 2.04 1.95 -28.0 0 0 155.73 84.27
  Q 155.29 83.21 153.98 82.52
  Q 148.41 79.57 142.05 76.37"
/>
<path stroke="#1a2f9b" vector-effect="non-scaling-stroke" d="
  M 142.05 76.37
  Q 140.40 76.49 139.67 77.77
  A 1.70 1.61 60.4 0 0 139.46 78.62
  Q 139.70 85.55 140.01 92.44
  Q 140.03 92.99 140.84 93.49"
/>
<path stroke="#2a67ff" vector-effect="non-scaling-stroke" d="
  M 142.05 76.37
  Q 147.38 86.31 140.84 93.49"
/>
<path stroke="#828b9a" vector-effect="non-scaling-stroke" d="
  M 235.27 69.07
  L 240.67 69.05
  A 0.14 0.14 0.0 0 0 240.81 68.91
  L 240.81 68.83
  A 2.64 2.56 -0.2 0 0 238.17 66.28
  L 237.77 66.28
  A 2.64 2.56 -0.2 0 0 235.13 68.85
  L 235.13 68.93
  A 0.14 0.14 0.0 0 0 235.27 69.07"
/>
<path stroke="#828b9a" vector-effect="non-scaling-stroke" d="
  M 294.09 69.06
  L 299.35 69.04
  A 0.20 0.20 0.0 0 0 299.55 68.84
  L 299.55 68.71
  A 2.73 2.45 -0.3 0 0 296.80 66.27
  L 296.60 66.27
  A 2.73 2.45 -0.3 0 0 293.89 68.73
  L 293.89 68.86
  A 0.20 0.20 0.0 0 0 294.09 69.06"
/>
<path stroke="#246b9b" vector-effect="non-scaling-stroke" d="
  M 292.73 106.93
  Q 293.39 106.91 293.44 106.89
  A 0.65 0.64 65.7 0 0 293.76 106.04
  Q 292.91 104.09 292.64 104.10
  Q 292.38 104.11 291.65 106.11
  A 0.65 0.64 -69.4 0 0 292.02 106.93
  Q 292.07 106.95 292.73 106.93"
/>
<path stroke="#246b9b" vector-effect="non-scaling-stroke" d="
  M 275.02 125.87
  A 2.83 2.83 0.0 0 0 272.19 123.04
  A 2.83 2.83 0.0 0 0 269.36 125.87
  A 2.83 2.83 0.0 0 0 272.19 128.70
  A 2.83 2.83 0.0 0 0 275.02 125.87"
/>
<path stroke="#246b9b" vector-effect="non-scaling-stroke" d="
  M 361.28 125.87
  A 2.84 2.84 0.0 0 0 358.44 123.03
  A 2.84 2.84 0.0 0 0 355.60 125.87
  A 2.84 2.84 0.0 0 0 358.44 128.71
  A 2.84 2.84 0.0 0 0 361.28 125.87"
/>
<path stroke="#246b9b" vector-effect="non-scaling-stroke" d="
  M 310.21 126.93
  Q 310.73 126.95 310.85 126.93
  A 0.53 0.53 0.0 0 0 311.27 126.29
  Q 310.76 124.13 310.30 124.11
  Q 309.84 124.10 309.20 126.22
  A 0.53 0.53 0.0 0 0 309.58 126.89
  Q 309.70 126.92 310.21 126.93"
/>
</g>
<path fill="#102037" d="
  M 500.00 0.00
  L 500.00 174.00
  L 0.00 174.00
  L 0.00 0.00
  L 500.00 0.00
  Z
  M 203.23 16.57
  A 0.48 0.48 0.0 0 0 202.75 16.09
  L 200.71 16.09
  A 0.48 0.48 0.0 0 0 200.23 16.57
  L 200.23 153.39
  A 0.48 0.48 0.0 0 0 200.71 153.87
  L 202.75 153.87
  A 0.48 0.48 0.0 0 0 203.23 153.39
  L 203.23 16.57
  Z
  M 93.99 47.04
  L 95.24 54.43
  L 100.23 81.45
  L 107.91 124.06
  Q 103.57 114.38 101.09 104.05
  L 97.30 87.01
  A 0.01 0.01 0.0 0 0 97.29 87.00
  L 96.79 86.89
  A 0.21 0.21 0.0 0 0 96.54 87.12
  Q 97.10 92.54 97.07 93.75
  Q 96.80 104.61 97.63 119.68
  C 98.11 128.38 97.97 134.80 98.12 142.98
  C 98.18 146.95 98.72 150.07 103.02 150.70
  Q 105.97 151.12 124.64 153.87
  A 2.40 2.37 45.4 0 0 125.36 153.88
  Q 130.21 153.22 133.97 149.96
  Q 155.09 131.64 189.51 102.57
  A 1.07 1.05 -20.4 0 0 189.89 101.76
  L 189.89 89.86
  L 189.88 85.91
  L 189.83 76.80
  L 189.91 72.06
  L 189.93 64.94
  L 189.82 58.77
  A 0.74 0.74 0.0 0 0 189.33 58.09
  L 131.16 37.04
  Q 140.35 37.60 149.37 40.32
  Q 157.90 42.89 166.34 45.68
  A 0.26 0.26 0.0 0 0 166.68 45.45
  L 166.70 45.13
  A 0.06 0.05 20.8 0 0 166.67 45.07
  L 147.23 34.69
  L 125.99 23.15
  L 113.57 16.49
  A 2.00 1.99 54.7 0 0 112.32 16.27
  Q 110.57 16.54 109.52 17.77
  Q 104.23 24.01 95.78 35.00
  Q 91.72 40.29 93.99 47.04
  Z
  M 250.35 41.38
  Q 253.30 46.35 255.23 49.53
  A 0.97 0.96 -15.3 0 0 256.06 50.00
  L 258.44 50.00
  A 0.51 0.50 -90.0 0 0 258.94 49.49
  L 258.94 31.55
  A 0.39 0.39 0.0 0 0 258.55 31.16
  L 256.00 31.16
  A 0.37 0.37 0.0 0 0 255.63 31.53
  L 255.63 43.18
  A 0.26 0.26 0.0 0 1 255.16 43.34
  Q 254.86 42.95 252.97 39.77
  Q 250.02 34.79 248.09 31.61
  A 0.97 0.96 -15.3 0 0 247.26 31.14
  L 244.88 31.14
  A 0.51 0.50 -90.0 0 0 244.38 31.65
  L 244.38 49.59
  A 0.39 0.39 0.0 0 0 244.77 49.98
  L 247.32 49.98
  A 0.37 0.37 0.0 0 0 247.69 49.61
  L 247.69 37.96
  A 0.26 0.26 0.0 0 1 248.16 37.81
  Q 248.47 38.20 250.35 41.38
  Z
  M 289.74 33.86
  C 287.14 30.01 280.14 29.62 278.63 34.54
  C 276.85 40.32 283.44 40.99 286.49 43.12
  A 2.14 2.07 -57.5 0 1 287.06 45.91
  C 285.47 48.62 281.25 46.86 280.65 44.33
  A 0.46 0.46 0.0 0 0 280.13 43.98
  L 277.59 44.39
  A 0.52 0.52 0.0 0 0 277.18 45.05
  C 279.29 52.47 291.68 51.61 290.82 43.89
  C 290.44 40.41 286.85 39.48 282.95 37.62
  A 1.88 1.71 31.8 0 1 282.18 34.90
  C 283.54 33.26 285.58 33.83 286.77 35.58
  A 0.59 0.57 -33.0 0 0 287.56 35.74
  L 289.61 34.47
  A 0.44 0.43 -33.2 0 0 289.74 33.86
  Z
  M 324.66 47.02
  Q 322.91 47.72 322.00 46.81
  A 0.87 0.85 -68.0 0 1 321.75 46.20
  L 321.75 40.02
  A 0.55 0.55 0.0 0 1 322.30 39.47
  L 324.33 39.47
  A 0.75 0.75 0.0 0 0 325.08 38.72
  L 325.08 37.32
  A 0.70 0.69 0.0 0 0 324.38 36.63
  L 322.26 36.63
  A 0.51 0.51 0.0 0 1 321.75 36.12
  L 321.75 31.87
  A 0.42 0.42 0.0 0 0 321.16 31.48
  Q 317.70 32.98 318.55 35.87
  A 0.64 0.64 0.0 0 1 317.93 36.69
  L 313.57 36.65
  A 0.81 0.80 88.0 0 1 312.78 35.91
  Q 312.76 35.54 313.07 34.48
  A 0.73 0.72 -81.2 0 1 313.76 33.97
  L 314.46 33.97
  A 1.13 1.12 12.3 0 0 315.48 33.32
  Q 315.79 32.64 315.89 31.79
  A 0.66 0.66 0.0 0 0 315.37 31.07
  Q 311.31 30.28 309.71 33.36
  A 1.35 1.21 63.7 0 0 309.57 33.86
  L 309.40 36.29
  A 0.35 0.35 0.0 0 1 309.05 36.62
  L 307.42 36.62
  A 0.40 0.39 0.0 0 0 307.02 37.01
  L 307.02 38.96
  A 0.52 0.52 0.0 0 0 307.54 39.48
  L 308.95 39.48
  A 0.45 0.44 90.0 0 1 309.39 39.93
  L 309.39 49.53
  A 0.47 0.46 0.0 0 0 309.86 49.99
  L 312.41 49.99
  A 0.44 0.43 90.0 0 0 312.84 49.55
  L 312.84 39.86
  A 0.42 0.41 -0.0 0 1 313.26 39.45
  L 318.04 39.45
  A 0.43 0.43 0.0 0 1 318.47 39.90
  C 318.38 41.58 318.49 43.76 318.44 45.70
  C 318.34 49.25 321.20 51.26 324.68 50.00
  A 0.63 0.62 -10.0 0 0 325.10 49.41
  L 325.10 47.32
  A 0.32 0.32 0.0 0 0 324.66 47.02
  Z
  M 224.45 45.92
  Q 226.84 45.92 227.40 45.95
  A 0.92 0.90 80.2 0 1 228.21 46.53
  L 229.42 49.56
  A 0.72 0.71 -11.0 0 0 230.08 50.00
  L 232.74 50.00
  A 0.38 0.38 0.0 0 0 233.09 49.48
  L 226.04 31.83
  A 0.99 0.97 84.4 0 0 225.33 31.24
  Q 224.95 31.16 224.46 31.16
  Q 223.97 31.15 223.59 31.23
  A 0.99 0.97 -84.3 0 0 222.88 31.83
  L 215.81 49.47
  A 0.38 0.38 0.0 0 0 216.16 49.99
  L 218.82 49.99
  A 0.72 0.71 11.1 0 0 219.48 49.56
  L 220.70 46.53
  A 0.92 0.90 -80.1 0 1 221.51 45.94
  Q 222.07 45.92 224.45 45.92
  Z
  M 375.36 44.49
  L 382.77 44.49
  A 1.43 1.43 0.0 0 0 384.10 42.53
  L 382.88 39.48
  A 4.74 4.73 84.3 0 0 379.33 36.57
  C 373.49 35.50 370.01 40.57 371.65 45.80
  C 373.17 50.65 379.47 51.82 383.08 48.28
  A 0.55 0.55 0.0 0 0 383.13 47.55
  Q 381.74 45.72 380.51 46.42
  C 378.39 47.63 375.65 47.70 374.90 45.10
  A 0.48 0.48 0.0 0 1 375.36 44.49
  Z
  M 306.13 43.33
  A 6.89 6.89 0.0 0 0 299.24 36.44
  A 6.89 6.89 0.0 0 0 292.35 43.33
  A 6.89 6.89 0.0 0 0 299.24 50.22
  A 6.89 6.89 0.0 0 0 306.13 43.33
  Z
  M 335.77 41.88
  Q 335.89 41.88 335.94 42.06
  Q 336.89 45.12 337.94 48.83
  A 1.98 1.98 0.0 0 0 341.73 48.87
  L 345.35 37.04
  A 0.32 0.32 0.0 0 0 345.05 36.62
  L 342.43 36.62
  A 0.52 0.51 -81.6 0 0 341.94 36.99
  L 339.73 44.20
  A 0.15 0.15 0.0 0 1 339.45 44.20
  L 337.40 37.26
  A 0.86 0.85 -4.8 0 0 336.68 36.65
  Q 336.52 36.63 335.77 36.63
  Q 335.02 36.63 334.86 36.65
  A 0.86 0.85 4.8 0 0 334.14 37.26
  L 332.09 44.20
  A 0.15 0.15 0.0 0 1 331.81 44.20
  L 329.60 36.99
  A 0.52 0.51 81.6 0 0 329.11 36.62
  L 326.49 36.62
  A 0.32 0.32 0.0 0 0 326.19 37.04
  L 329.80 48.87
  A 1.98 1.98 0.0 0 0 333.59 48.83
  Q 334.65 45.12 335.59 42.06
  Q 335.65 41.88 335.77 41.88
  Z
  M 355.36 48.65
  Q 355.39 48.72 355.29 49.45
  A 0.49 0.49 0.0 0 0 355.78 50.00
  L 357.65 50.00
  A 0.49 0.49 0.0 0 0 358.14 49.52
  Q 358.23 43.08 358.06 41.50
  C 357.42 35.60 350.26 34.81 347.00 39.00
  A 0.54 0.54 0.0 0 0 347.16 39.80
  L 348.99 40.86
  A 0.60 0.58 -58.4 0 0 349.78 40.66
  Q 350.75 39.14 352.93 39.41
  A 2.04 2.03 -14.0 0 1 354.35 40.26
  L 354.76 40.86
  A 0.80 0.80 0.0 0 1 354.06 42.12
  C 351.22 41.96 346.89 41.79 346.35 45.07
  C 345.54 50.06 352.37 52.18 354.78 48.58
  A 0.33 0.33 0.0 0 1 355.36 48.65
  Z
  M 364.60 38.12
  L 364.60 36.97
  A 0.35 0.35 0.0 0 0 364.25 36.62
  L 361.85 36.62
  A 0.47 0.47 0.0 0 0 361.38 37.09
  L 361.38 49.50
  A 0.49 0.49 0.0 0 0 361.87 49.99
  L 364.17 49.99
  A 0.52 0.52 0.0 0 0 364.69 49.44
  C 364.50 46.39 363.66 38.83 368.77 39.86
  A 0.83 0.82 15.6 0 0 369.71 39.34
  L 370.34 37.64
  A 0.57 0.57 0.0 0 0 370.07 36.94
  Q 366.93 35.32 364.98 38.24
  A 0.21 0.21 0.0 0 1 364.60 38.12
  Z
  M 177.10 48.71
  A 0.34 0.34 0.0 0 0 177.08 49.35
  L 189.48 53.94
  A 0.34 0.34 0.0 0 0 189.94 53.62
  L 189.94 45.59
  A 0.34 0.34 0.0 0 0 189.51 45.26
  L 177.10 48.71
  Z
  M 239.5224 46.8130
  A 0.38 0.38 0.0 0 0 239.1431 46.4323
  L 236.5231 46.4277
  A 0.38 0.38 0.0 0 0 236.1424 46.8071
  L 236.1376 49.6070
  A 0.38 0.38 0.0 0 0 236.5169 49.9877
  L 239.1369 49.9923
  A 0.38 0.38 0.0 0 0 239.5176 49.6129
  L 239.5224 46.8130
  Z
  M 267.5151 46.8041
  A 0.39 0.39 0.0 0 0 267.1238 46.4155
  L 264.5238 46.4245
  A 0.39 0.39 0.0 0 0 264.1352 46.8159
  L 264.1449 49.5959
  A 0.39 0.39 0.0 0 0 264.5362 49.9845
  L 267.1362 49.9755
  A 0.39 0.39 0.0 0 0 267.5248 49.5841
  L 267.5151 46.8041
  Z
  M 94.67 75.31
  A 0.32 0.32 0.0 0 0 95.21 75.02
  L 91.34 53.06
  A 0.32 0.32 0.0 0 0 90.73 52.98
  L 84.70 65.36
  A 0.32 0.32 0.0 0 0 84.76 65.73
  L 94.67 75.31
  Z
  M 228.74 60.86
  C 226.14 57.02 219.15 56.62 217.64 61.54
  C 215.85 67.32 222.44 67.99 225.49 70.12
  A 2.14 2.07 -57.5 0 1 226.06 72.91
  C 224.47 75.61 220.25 73.85 219.65 71.33
  A 0.46 0.46 0.0 0 0 219.13 70.98
  L 216.59 71.38
  A 0.52 0.52 0.0 0 0 216.18 72.04
  C 218.29 79.46 230.67 78.61 229.82 70.89
  C 229.44 67.41 225.85 66.48 221.95 64.62
  A 1.87 1.71 31.9 0 1 221.18 61.90
  C 222.54 60.26 224.58 60.83 225.77 62.58
  A 0.59 0.57 -32.9 0 0 226.56 62.74
  L 228.61 61.47
  A 0.44 0.43 -33.1 0 0 228.74 60.86
  Z
  M 274.3062 58.4991
  A 0.34 0.34 0.0 0 0 273.9680 58.1574
  L 271.1680 58.1427
  A 0.34 0.34 0.0 0 0 270.8263 58.4809
  L 270.8138 60.8609
  A 0.34 0.34 0.0 0 0 271.1520 61.2026
  L 273.9520 61.2173
  A 0.34 0.34 0.0 0 0 274.2937 60.8791
  L 274.3062 58.4991
  Z
  M 235.61 71.48
  L 243.00 71.49
  A 1.43 1.43 0.0 0 0 244.34 69.54
  L 243.12 66.49
  A 4.73 4.72 84.4 0 0 239.59 63.58
  C 233.76 62.50 230.27 67.55 231.90 72.78
  C 233.41 77.62 239.70 78.80 243.31 75.28
  A 0.55 0.55 0.0 0 0 243.36 74.55
  Q 241.97 72.72 240.74 73.41
  C 238.63 74.62 235.89 74.68 235.15 72.09
  A 0.48 0.47 -8.1 0 1 235.61 71.48
  Z
  M 249.84 64.92
  Q 249.83 64.91 249.91 64.17
  A 0.50 0.49 -86.9 0 0 249.42 63.62
  L 247.04 63.62
  A 0.42 0.42 0.0 0 0 246.62 64.04
  L 246.62 76.50
  A 0.50 0.49 0.0 0 0 247.12 76.99
  L 249.42 76.99
  A 0.51 0.51 0.0 0 0 249.93 76.43
  C 249.67 73.53 248.99 66.39 253.52 66.76
  Q 254.60 66.85 254.86 66.48
  Q 255.24 65.94 255.37 65.08
  A 0.41 0.41 0.0 0 1 256.16 64.99
  L 260.58 76.05
  A 2.06 2.06 0.0 0 0 264.43 76.00
  L 268.88 63.95
  A 0.25 0.25 0.0 0 0 268.65 63.62
  L 266.05 63.62
  A 0.52 0.51 9.5 0 0 265.56 63.96
  L 262.61 71.93
  A 0.15 0.14 -46.5 0 1 262.34 71.94
  L 259.13 63.92
  A 0.56 0.54 -11.4 0 0 258.58 63.57
  L 255.26 63.76
  A 0.47 0.44 -35.3 0 1 255.05 63.73
  Q 251.96 62.65 250.51 64.95
  A 0.39 0.38 -42.0 0 1 249.84 64.92
  Z
  M 274.20 63.97
  A 0.34 0.34 0.0 0 0 273.86 63.63
  L 271.24 63.63
  A 0.34 0.34 0.0 0 0 270.90 63.97
  L 270.90 76.65
  A 0.34 0.34 0.0 0 0 271.24 76.99
  L 273.86 76.99
  A 0.34 0.34 0.0 0 0 274.20 76.65
  L 274.20 63.97
  Z
  M 276.78 70.26
  C 276.70 77.27 285.51 80.22 288.63 73.86
  A 0.55 0.54 -66.7 0 0 288.33 73.11
  L 286.17 72.31
  A 0.59 0.58 -69.3 0 0 285.43 72.65
  Q 284.60 74.75 282.21 74.05
  C 280.64 73.59 280.11 71.77 280.12 70.30
  C 280.14 68.83 280.72 67.03 282.30 66.60
  Q 284.71 65.96 285.49 68.08
  A 0.59 0.58 70.7 0 0 286.22 68.44
  L 288.40 67.69
  A 0.55 0.54 68.1 0 0 288.71 66.95
  C 285.75 60.51 276.87 63.25 276.78 70.26
  Z
  M 294.37 71.49
  L 301.77 71.49
  A 1.43 1.43 0.0 0 0 303.10 69.53
  L 301.88 66.48
  A 4.73 4.73 0.0 0 0 298.33 63.58
  C 292.49 62.51 289.02 67.58 290.66 72.80
  C 292.18 77.65 298.48 78.81 302.08 75.27
  A 0.55 0.55 0.0 0 0 302.13 74.54
  Q 300.74 72.72 299.51 73.42
  C 297.39 74.63 294.66 74.70 293.91 72.10
  A 0.48 0.47 -8.2 0 1 294.37 71.49
  Z
  M 312.62 67.51
  L 314.47 66.77
  A 0.63 0.63 0.0 0 0 314.73 65.79
  C 312.00 62.40 305.03 62.33 305.06 67.73
  C 305.08 70.65 308.02 71.23 310.58 71.84
  A 1.25 1.25 0.0 0 1 310.77 74.21
  Q 308.36 75.21 306.82 72.71
  A 0.41 0.40 63.4 0 0 306.32 72.54
  L 304.38 73.31
  A 0.43 0.42 -26.5 0 0 304.17 73.92
  Q 306.59 78.00 311.04 77.08
  Q 314.95 76.28 314.83 72.50
  C 314.73 69.52 311.54 68.81 308.85 67.99
  A 0.80 0.80 0.0 0 1 308.50 66.67
  C 309.78 65.31 311.17 66.24 312.13 67.39
  A 0.43 0.42 -31.1 0 0 312.62 67.51
  Z
  M 314.14 101.21
  C 311.44 100.10 306.15 100.06 306.26 104.09
  C 306.32 106.48 309.22 106.85 311.39 107.42
  A 0.74 0.73 46.3 0 1 311.36 108.85
  Q 309.58 109.21 307.70 108.20
  A 0.80 0.79 21.4 0 0 306.55 108.70
  L 306.35 109.52
  A 0.84 0.83 -72.0 0 0 306.84 110.50
  C 309.06 111.40 314.07 111.82 314.78 108.76
  C 315.63 105.11 311.85 105.10 309.62 104.29
  A 0.70 0.70 0.0 0 1 309.74 102.95
  Q 311.52 102.65 313.58 103.52
  A 0.19 0.19 0.0 0 0 313.84 103.39
  L 314.31 101.55
  A 0.30 0.29 18.8 0 0 314.14 101.21
  Z
  M 381.75 105.63
  A 0.60 0.60 0.0 0 0 381.15 106.23
  L 381.15 107.97
  A 0.70 0.70 0.0 0 1 380.50 108.67
  C 373.89 109.12 376.88 100.41 381.64 103.67
  A 1.07 1.06 32.2 0 0 383.16 103.33
  L 383.52 102.71
  A 0.69 0.68 -56.9 0 0 383.34 101.82
  C 379.39 98.89 373.25 101.09 373.87 106.66
  C 374.39 111.27 379.54 112.06 383.25 110.22
  A 0.88 0.87 77.1 0 0 383.74 109.43
  L 383.74 106.15
  A 0.53 0.52 0.0 0 0 383.21 105.63
  L 381.75 105.63
  Z
  M 221.26 111.21
  C 227.17 111.21 226.17 105.33 226.10 101.20
  A 0.51 0.50 -0.3 0 0 225.59 100.71
  L 223.69 100.71
  A 0.51 0.51 0.0 0 0 223.18 101.20
  Q 223.13 103.27 223.22 105.77
  Q 223.33 108.69 221.26 108.68
  Q 219.20 108.68 219.31 105.76
  Q 219.40 103.27 219.36 101.20
  A 0.51 0.51 0.0 0 0 218.85 100.70
  L 216.95 100.70
  A 0.51 0.50 0.4 0 0 216.44 101.19
  C 216.36 105.32 215.35 111.20 221.26 111.21
  Z
  M 235.25 101.99
  L 235.25 110.45
  A 0.55 0.55 0.0 0 0 235.80 111.00
  L 237.60 111.00
  A 0.53 0.53 0.0 0 0 238.13 110.47
  L 238.13 106.36
  A 0.32 0.31 25.8 0 1 238.69 106.17
  L 242.35 110.68
  A 1.53 1.52 -64.5 0 0 245.06 109.72
  L 245.06 101.25
  A 0.54 0.53 0.0 0 0 244.52 100.72
  L 242.70 100.72
  A 0.53 0.53 0.0 0 0 242.17 101.25
  L 242.17 105.35
  A 0.32 0.31 25.8 0 1 241.61 105.54
  L 237.95 101.03
  A 1.52 1.52 0.0 0 0 235.25 101.99
  Z
  M 261.88 111.00
  A 0.48 0.48 0.0 0 0 262.36 110.52
  L 262.36 109.16
  A 0.48 0.48 0.0 0 0 261.88 108.68
  L 257.92 108.68
  A 0.48 0.48 0.0 0 1 257.44 108.20
  L 257.44 101.18
  A 0.48 0.48 0.0 0 0 256.96 100.70
  L 254.99 100.70
  A 0.48 0.48 0.0 0 0 254.51 101.18
  L 254.51 110.52
  A 0.48 0.48 0.0 0 0 254.99 111.00
  L 261.88 111.00
  Z
  M 270.78 105.86
  Q 270.81 109.63 270.82 110.28
  A 0.73 0.72 89.5 0 0 271.54 111.00
  L 278.26 111.00
  A 0.74 0.74 0.0 0 0 279.00 110.26
  L 279.00 109.36
  A 0.67 0.66 -90.0 0 0 278.34 108.69
  L 274.38 108.69
  A 0.77 0.77 0.0 0 1 273.61 107.92
  L 273.61 107.60
  A 0.67 0.67 0.0 0 1 274.28 106.93
  L 277.41 106.93
  A 0.78 0.77 15.4 0 0 278.08 106.55
  Q 278.26 106.24 278.26 105.81
  Q 278.26 105.39 278.07 105.08
  A 0.78 0.77 -16.2 0 0 277.39 104.71
  L 274.27 104.75
  A 0.67 0.67 0.0 0 1 273.59 104.09
  L 273.58 103.77
  A 0.77 0.77 0.0 0 1 274.34 102.99
  L 278.30 102.94
  A 0.67 0.66 89.2 0 0 278.95 102.26
  L 278.94 101.36
  A 0.74 0.74 0.0 0 0 278.19 100.63
  L 271.47 100.72
  A 0.73 0.72 89.7 0 0 270.76 101.45
  Q 270.76 102.10 270.78 105.86
  Z
  M 292.75 108.98
  Q 294.20 108.98 294.46 109.00
  A 0.80 0.79 87.0 0 1 295.20 109.67
  Q 295.49 111.55 298.05 110.98
  A 0.37 0.37 0.0 0 0 298.32 110.48
  L 294.69 101.39
  A 1.01 1.00 -6.2 0 0 293.92 100.78
  Q 293.41 100.70 292.75 100.70
  Q 292.10 100.70 291.58 100.78
  A 1.01 1.00 6.2 0 0 290.82 101.39
  L 287.18 110.48
  A 0.37 0.37 0.0 0 0 287.45 110.98
  Q 290.01 111.55 290.31 109.67
  A 0.80 0.79 -87.0 0 1 291.05 109.00
  Q 291.31 108.98 292.75 108.98
  Z
  M 323.77 105.83
  Q 323.77 110.20 323.78 110.39
  A 0.57 0.57 0.0 0 0 324.35 110.96
  L 326.15 110.99
  A 0.63 0.62 88.4 0 0 326.79 110.31
  L 326.60 107.96
  A 0.77 0.77 0.0 0 1 327.26 107.14
  Q 327.95 107.04 328.67 107.04
  Q 329.38 107.04 330.08 107.14
  A 0.77 0.77 0.0 0 1 330.74 107.96
  L 330.55 110.31
  A 0.63 0.62 -88.4 0 0 331.19 110.99
  L 332.99 110.96
  A 0.57 0.57 0.0 0 0 333.56 110.39
  Q 333.56 110.20 333.56 105.83
  Q 333.56 101.45 333.56 101.26
  A 0.57 0.57 0.0 0 0 332.98 100.70
  L 331.18 100.67
  A 0.63 0.62 88.4 0 0 330.54 101.35
  L 330.73 103.70
  A 0.77 0.77 0.0 0 1 330.08 104.52
  Q 329.38 104.62 328.67 104.62
  Q 327.95 104.62 327.26 104.52
  A 0.77 0.77 0.0 0 1 326.60 103.70
  L 326.79 101.35
  A 0.63 0.62 -88.4 0 0 326.15 100.67
  L 324.35 100.70
  A 0.57 0.57 0.0 0 0 323.78 101.27
  Q 323.77 101.46 323.77 105.83
  Z
  M 345.68 101.14
  A 0.46 0.46 0.0 0 0 345.22 100.68
  L 343.26 100.68
  A 0.46 0.46 0.0 0 0 342.80 101.14
  L 342.80 110.54
  A 0.46 0.46 0.0 0 0 343.26 111.00
  L 345.22 111.00
  A 0.46 0.46 0.0 0 0 345.68 110.54
  L 345.68 101.14
  Z
  M 362.45 100.72
  A 0.53 0.53 0.0 0 0 361.92 101.25
  L 361.92 105.45
  A 0.28 0.27 25.7 0 1 361.43 105.62
  L 357.70 101.02
  A 1.51 1.51 0.0 0 0 355.01 101.97
  L 355.01 110.53
  A 0.47 0.46 90.0 0 0 355.47 111.00
  L 357.37 111.00
  A 0.52 0.52 0.0 0 0 357.89 110.48
  L 357.89 106.28
  A 0.28 0.27 -64.7 0 1 358.38 106.10
  L 362.08 110.67
  A 1.54 1.54 0.0 0 0 364.81 109.70
  L 364.81 101.23
  A 0.51 0.51 0.0 0 0 364.30 100.72
  L 362.45 100.72
  Z
  M 168.15 126.60
  A 0.06 0.06 0.0 0 0 168.22 126.70
  L 189.73 113.38
  A 0.48 0.48 0.0 0 0 189.96 112.97
  L 189.96 105.18
  A 0.16 0.16 0.0 0 0 189.69 105.06
  L 168.15 126.60
  Z
  M 277.92 125.87
  A 5.72 5.36 0.0 0 0 272.20 120.51
  A 5.72 5.36 0.0 0 0 266.48 125.87
  A 5.72 5.36 0.0 0 0 272.20 131.23
  A 5.72 5.36 0.0 0 0 277.92 125.87
  Z
  M 364.1700 125.8600
  A 5.72 5.36 -0.1 0 0 358.4406 120.5100
  A 5.72 5.36 -0.1 0 0 352.7300 125.8800
  A 5.72 5.36 -0.1 0 0 358.4594 131.2300
  A 5.72 5.36 -0.1 0 0 364.1700 125.8600
  Z
  M 219.4317 121.0975
  A 0.39 0.39 0.0 0 0 219.0410 120.7081
  L 216.9010 120.7119
  A 0.39 0.39 0.0 0 0 216.5117 121.1026
  L 216.5283 130.6025
  A 0.39 0.39 0.0 0 0 216.9190 130.9919
  L 219.0590 130.9881
  A 0.39 0.39 0.0 0 0 219.4483 130.5974
  L 219.4317 121.0975
  Z
  M 236.19 120.71
  A 0.53 0.53 0.0 0 0 235.66 121.24
  L 235.67 125.44
  A 0.28 0.27 25.6 0 1 235.18 125.62
  L 231.44 121.02
  A 1.52 1.51 25.3 0 0 228.75 121.98
  L 228.77 130.55
  A 0.47 0.46 89.8 0 0 229.23 131.02
  L 231.13 131.01
  A 0.52 0.52 0.0 0 0 231.65 130.49
  L 231.64 126.29
  A 0.28 0.27 -64.9 0 1 232.13 126.10
  L 235.85 130.67
  A 1.54 1.54 0.0 0 0 238.58 129.69
  L 238.55 121.21
  A 0.51 0.51 0.0 0 0 238.04 120.70
  L 236.19 120.71
  Z
  M 255.45 120.72
  A 0.53 0.53 0.0 0 0 254.92 121.25
  L 254.92 125.45
  A 0.28 0.27 25.7 0 1 254.43 125.62
  L 250.71 121.02
  A 1.51 1.51 0.0 0 0 248.02 121.97
  L 248.02 130.52
  A 0.47 0.46 -90.0 0 0 248.47 130.99
  L 250.37 130.99
  A 0.52 0.52 0.0 0 0 250.89 130.47
  L 250.89 126.28
  A 0.28 0.27 -64.7 0 1 251.38 126.10
  L 255.08 130.66
  A 1.54 1.53 -64.5 0 0 257.80 129.69
  L 257.81 121.23
  A 0.51 0.51 0.0 0 0 257.30 120.72
  L 255.45 120.72
  Z
  M 291.37 131.01
  Q 292.31 131.02 292.36 131.01
  A 1.00 0.98 -83.3 0 0 293.07 130.44
  L 297.05 121.25
  A 0.39 0.39 0.0 0 0 296.69 120.71
  L 294.76 120.73
  A 0.84 0.84 0.0 0 0 293.98 121.26
  Q 293.85 121.60 291.66 126.77
  Q 291.59 126.95 291.39 126.95
  Q 291.20 126.94 291.12 126.76
  Q 288.99 121.58 288.86 121.24
  A 0.84 0.84 0.0 0 0 288.08 120.70
  L 286.15 120.66
  A 0.39 0.39 0.0 0 0 285.79 121.20
  L 289.68 130.42
  A 1.00 0.98 83.9 0 0 290.38 131.00
  Q 290.44 131.01 291.37 131.01
  Z
  M 310.25 128.96
  Q 311.69 128.96 311.95 128.98
  A 0.80 0.79 86.9 0 1 312.69 129.65
  Q 312.99 131.52 315.54 130.95
  A 0.37 0.37 0.0 0 0 315.81 130.45
  L 312.17 121.39
  A 1.00 1.00 0.0 0 0 311.41 120.78
  Q 310.90 120.69 310.24 120.69
  Q 309.58 120.70 309.07 120.78
  A 1.00 1.00 0.0 0 0 308.31 121.39
  L 304.70 130.47
  A 0.37 0.37 0.0 0 0 304.97 130.96
  Q 307.52 131.53 307.81 129.65
  A 0.80 0.79 -87.1 0 1 308.55 128.98
  Q 308.81 128.97 310.25 128.96
  Z
  M 327.91 131.02
  Q 328.66 131.02 328.85 131.01
  A 0.58 0.58 0.0 0 0 329.39 130.43
  L 329.39 123.61
  A 0.56 0.56 0.0 0 1 329.95 123.05
  L 331.80 123.05
  A 0.79 0.78 -0.0 0 0 332.59 122.27
  L 332.59 121.56
  A 0.86 0.85 89.8 0 0 331.73 120.70
  Q 330.11 120.71 327.92 120.69
  Q 325.72 120.71 324.10 120.70
  A 0.86 0.85 -89.8 0 0 323.24 121.56
  L 323.24 122.27
  A 0.79 0.78 0.1 0 0 324.03 123.05
  L 325.88 123.05
  A 0.56 0.56 0.0 0 1 326.44 123.61
  L 326.43 130.43
  A 0.58 0.58 0.0 0 0 326.97 131.01
  Q 327.17 131.02 327.91 131.02
  Z
  M 343.9380 121.2725
  A 0.59 0.59 0.0 0 0 343.3490 120.6815
  L 341.6290 120.6785
  A 0.59 0.59 0.0 0 0 341.0380 121.2675
  L 341.0220 130.3875
  A 0.59 0.59 0.0 0 0 341.6110 130.9785
  L 343.3310 130.9815
  A 0.59 0.59 0.0 0 0 343.9220 130.3925
  L 343.9380 121.2725
  Z
  M 380.45 120.72
  A 0.53 0.53 0.0 0 0 379.92 121.25
  L 379.92 125.45
  A 0.28 0.27 25.7 0 1 379.43 125.62
  L 375.70 121.02
  A 1.51 1.51 0.0 0 0 373.01 121.97
  L 373.01 130.52
  A 0.47 0.46 -90.0 0 0 373.47 130.99
  L 375.37 130.99
  A 0.52 0.52 0.0 0 0 375.89 130.47
  L 375.89 126.28
  A 0.28 0.27 -64.7 0 1 376.38 126.10
  L 380.08 130.66
  A 1.54 1.54 0.0 0 0 382.81 129.70
  L 382.81 121.23
  A 0.51 0.51 0.0 0 0 382.30 120.72
  L 380.45 120.72
  Z
  M 156.49 146.73
  A 0.32 0.32 0.0 0 0 156.78 146.49
  L 160.05 133.51
  A 0.32 0.32 0.0 0 0 159.54 133.19
  L 142.10 147.33
  A 0.32 0.32 0.0 0 0 142.32 147.89
  L 156.49 146.73
  Z"
/>
<rect fill="#f4f6fc" x="200.23" y="16.09" width="3.00" height="137.78" rx="0.48"/>
<path fill="#389aee" d="
  M 125.99 23.15
  L 117.67 23.62
  A 1.37 1.37 0.0 0 0 116.92 23.91
  L 114.55 25.83
  A 1.19 1.19 0.0 0 1 113.28 25.98
  Q 110.65 24.73 108.96 25.37
  Q 102.99 27.63 100.28 33.06
  Q 97.73 38.17 97.64 38.46
  Q 96.36 42.91 93.99 47.04
  Q 91.72 40.29 95.78 35.00
  Q 104.23 24.01 109.52 17.77
  Q 110.57 16.54 112.32 16.27
  A 2.00 1.99 54.7 0 1 113.57 16.49
  L 125.99 23.15
  Z"
/>
<path fill="#2f82ff" d="
  M 125.99 23.15
  L 147.23 34.69
  Q 140.55 33.19 134.03 31.23
  Q 130.48 30.16 118.58 29.24
  Q 113.31 28.83 108.57 33.01
  A 0.24 0.23 -49.7 0 1 108.30 33.04
  L 108.01 32.87
  A 0.04 0.04 0.0 0 1 108.00 32.81
  L 109.88 30.39
  A 0.41 0.41 0.0 0 0 109.35 29.79
  Q 105.70 31.89 103.70 35.49
  C 102.46 37.74 102.05 40.92 101.32 43.25
  A 12.88 4.49 -46.2 0 1 99.95 46.25
  L 95.24 54.43
  L 93.99 47.04
  Q 96.36 42.91 97.64 38.46
  Q 97.73 38.17 100.28 33.06
  Q 102.99 27.63 108.96 25.37
  Q 110.65 24.73 113.28 25.98
  A 1.19 1.19 0.0 0 0 114.55 25.83
  L 116.92 23.91
  A 1.37 1.37 0.0 0 1 117.67 23.62
  L 125.99 23.15
  Z"
/>
<path fill="#2a63ff" d="
  M 147.23 34.69
  L 166.67 45.07
  A 0.06 0.05 20.8 0 1 166.70 45.13
  L 166.68 45.45
  A 0.26 0.26 0.0 0 1 166.34 45.68
  Q 157.90 42.89 149.37 40.32
  Q 140.35 37.60 131.16 37.04
  Q 118.41 33.55 112.19 43.74
  L 111.14 45.41
  A 0.34 0.34 0.0 0 0 111.37 45.93
  L 115.08 46.56
  L 109.69 49.87
  Q 107.93 57.62 106.29 70.77
  Q 105.51 76.96 100.23 81.45
  L 95.24 54.43
  L 99.95 46.25
  A 12.88 4.49 -46.2 0 0 101.32 43.25
  C 102.05 40.92 102.46 37.74 103.70 35.49
  Q 105.70 31.89 109.35 29.79
  A 0.41 0.41 0.0 0 1 109.88 30.39
  L 108.00 32.81
  A 0.04 0.04 0.0 0 0 108.01 32.87
  L 108.30 33.04
  A 0.24 0.23 -49.7 0 0 108.57 33.01
  Q 113.31 28.83 118.58 29.24
  Q 130.48 30.16 134.03 31.23
  Q 140.55 33.19 147.23 34.69
  Z"
/>
<path fill="#f4f6fc" d="
  M 252.97 39.77
  Q 254.86 42.95 255.16 43.34
  A 0.26 0.26 0.0 0 0 255.63 43.18
  L 255.63 31.53
  A 0.37 0.37 0.0 0 1 256.00 31.16
  L 258.55 31.16
  A 0.39 0.39 0.0 0 1 258.94 31.55
  L 258.94 49.49
  A 0.51 0.50 90.0 0 1 258.44 50.00
  L 256.06 50.00
  A 0.97 0.96 -15.3 0 1 255.23 49.53
  Q 253.30 46.35 250.35 41.38
  Q 248.47 38.20 248.16 37.81
  A 0.26 0.26 0.0 0 0 247.69 37.96
  L 247.69 49.61
  A 0.37 0.37 0.0 0 1 247.32 49.98
  L 244.77 49.98
  A 0.39 0.39 0.0 0 1 244.38 49.59
  L 244.38 31.65
  A 0.51 0.50 -90.0 0 1 244.88 31.14
  L 247.26 31.14
  A 0.97 0.96 -15.3 0 1 248.09 31.61
  Q 250.02 34.79 252.97 39.77
  Z"
/>
<path fill="#f4f6fc" d="
  M 289.74 33.86
  A 0.44 0.43 -33.2 0 1 289.61 34.47
  L 287.56 35.74
  A 0.59 0.57 -33.0 0 1 286.77 35.58
  C 285.58 33.83 283.54 33.26 282.18 34.90
  A 1.88 1.71 31.8 0 0 282.95 37.62
  C 286.85 39.48 290.44 40.41 290.82 43.89
  C 291.68 51.61 279.29 52.47 277.18 45.05
  A 0.52 0.52 0.0 0 1 277.59 44.39
  L 280.13 43.98
  A 0.46 0.46 0.0 0 1 280.65 44.33
  C 281.25 46.86 285.47 48.62 287.06 45.91
  A 2.14 2.07 -57.5 0 0 286.49 43.12
  C 283.44 40.99 276.85 40.32 278.63 34.54
  C 280.14 29.62 287.14 30.01 289.74 33.86
  Z"
/>
<path fill="#f4f6fc" d="
  M 324.66 47.02
  A 0.32 0.32 0.0 0 1 325.10 47.32
  L 325.10 49.41
  A 0.63 0.62 -10.0 0 1 324.68 50.00
  C 321.20 51.26 318.34 49.25 318.44 45.70
  C 318.49 43.76 318.38 41.58 318.47 39.90
  A 0.43 0.43 0.0 0 0 318.04 39.45
  L 313.26 39.45
  A 0.42 0.41 -0.0 0 0 312.84 39.86
  L 312.84 49.55
  A 0.44 0.43 -90.0 0 1 312.41 49.99
  L 309.86 49.99
  A 0.47 0.46 0.0 0 1 309.39 49.53
  L 309.39 39.93
  A 0.45 0.44 -90.0 0 0 308.95 39.48
  L 307.54 39.48
  A 0.52 0.52 0.0 0 1 307.02 38.96
  L 307.02 37.01
  A 0.40 0.39 0.0 0 1 307.42 36.62
  L 309.05 36.62
  A 0.35 0.35 0.0 0 0 309.40 36.29
  L 309.57 33.86
  A 1.35 1.21 63.7 0 1 309.71 33.36
  Q 311.31 30.28 315.37 31.07
  A 0.66 0.66 0.0 0 1 315.89 31.79
  Q 315.79 32.64 315.48 33.32
  A 1.13 1.12 12.3 0 1 314.46 33.97
  L 313.76 33.97
  A 0.73 0.72 -81.2 0 0 313.07 34.48
  Q 312.76 35.54 312.78 35.91
  A 0.81 0.80 88.0 0 0 313.57 36.65
  L 317.93 36.69
  A 0.64 0.64 0.0 0 0 318.55 35.87
  Q 317.70 32.98 321.16 31.48
  A 0.42 0.42 0.0 0 1 321.75 31.87
  L 321.75 36.12
  A 0.51 0.51 0.0 0 0 322.26 36.63
  L 324.38 36.63
  A 0.70 0.69 -0.0 0 1 325.08 37.32
  L 325.08 38.72
  A 0.75 0.75 0.0 0 1 324.33 39.47
  L 322.30 39.47
  A 0.55 0.55 0.0 0 0 321.75 40.02
  L 321.75 46.20
  A 0.87 0.85 -68.0 0 0 322.00 46.81
  Q 322.91 47.72 324.66 47.02
  Z
  M 316.04 37.79
  Q 315.97 37.89 315.97 38.45
  A 0.31 0.30 62.9 0 0 316.52 38.63
  Q 316.80 38.24 316.72 37.93
  A 0.39 0.38 56.4 0 0 316.04 37.79
  Z"
/>
<path fill="#f4f6fc" d="
  M 224.46 31.16
  Q 224.95 31.16 225.33 31.24
  A 0.99 0.97 84.4 0 1 226.04 31.83
  L 233.09 49.48
  A 0.38 0.38 0.0 0 1 232.74 50.00
  L 230.08 50.00
  A 0.72 0.71 -11.0 0 1 229.42 49.56
  L 228.21 46.53
  A 0.92 0.90 80.2 0 0 227.40 45.95
  Q 226.84 45.92 224.45 45.92
  Q 222.07 45.92 221.51 45.94
  A 0.92 0.90 -80.1 0 0 220.70 46.53
  L 219.48 49.56
  A 0.72 0.71 11.1 0 1 218.82 49.99
  L 216.16 49.99
  A 0.38 0.38 0.0 0 1 215.81 49.47
  L 222.88 31.83
  A 0.99 0.97 -84.3 0 1 223.59 31.23
  Q 223.97 31.15 224.46 31.16
  Z
  M 222.17 42.59
  A 0.32 0.32 0.0 0 0 222.47 43.02
  L 226.49 43.02
  A 0.32 0.32 0.0 0 0 226.79 42.59
  L 224.78 37.07
  A 0.32 0.32 0.0 0 0 224.18 37.07
  L 222.17 42.59
  Z"
/>
<path fill="#389aee" d="
  M 131.16 37.04
  L 189.33 58.09
  A 0.74 0.74 0.0 0 1 189.82 58.77
  L 189.93 64.94
  L 173.45 58.39
  A 0.41 0.41 0.0 0 0 172.90 58.83
  Q 173.02 59.62 174.44 60.81
  Q 171.32 59.27 168.43 57.36
  Q 164.42 54.71 162.56 53.77
  C 156.41 50.67 152.12 48.31 146.46 46.44
  A 0.34 0.34 0.0 0 0 146.02 46.85
  Q 146.52 48.81 147.68 50.63
  L 153.11 61.13
  A 0.27 0.26 -33.8 0 1 153.04 61.46
  L 152.83 61.63
  A 0.38 0.38 0.0 0 1 152.27 61.55
  Q 148.79 56.15 144.28 51.73
  Q 140.24 45.91 138.41 44.40
  Q 135.02 41.60 131.74 41.59
  Q 124.21 41.55 112.19 43.74
  Q 118.41 33.55 131.16 37.04
  Z"
/>
<path fill="#f4f6fc" d="
  M 374.90 45.10
  C 375.65 47.70 378.39 47.63 380.51 46.42
  Q 381.74 45.72 383.13 47.55
  A 0.55 0.55 0.0 0 1 383.08 48.28
  C 379.47 51.82 373.17 50.65 371.65 45.80
  C 370.01 40.57 373.49 35.50 379.33 36.57
  A 4.74 4.73 84.3 0 1 382.88 39.48
  L 384.10 42.53
  A 1.43 1.43 0.0 0 1 382.77 44.49
  L 375.36 44.49
  A 0.48 0.48 0.0 0 0 374.90 45.10
  Z
  M 375.01 42.08
  L 380.43 42.04
  A 0.14 0.14 0.0 0 0 380.57 41.90
  L 380.57 41.82
  A 2.71 2.58 -0.4 0 0 377.84 39.26
  L 377.56 39.26
  A 2.71 2.58 -0.4 0 0 374.87 41.86
  L 374.87 41.94
  A 0.14 0.14 0.0 0 0 375.01 42.08
  Z"
/>
<path fill="#f4f6fc" d="
  M 306.13 43.33
  A 6.89 6.89 0.0 0 1 299.24 50.22
  A 6.89 6.89 0.0 0 1 292.35 43.33
  A 6.89 6.89 0.0 0 1 299.24 36.44
  A 6.89 6.89 0.0 0 1 306.13 43.33
  Z
  M 299.2400 39.2600
  A 4.09 3.43 -90.0 0 0 295.8100 43.3500
  A 4.09 3.43 -90.0 0 0 299.2400 47.4400
  A 4.09 3.43 -90.0 0 0 302.6700 43.3500
  A 4.09 3.43 -90.0 0 0 299.2400 39.2600
  Z"
/>
<path fill="#f4f6fc" d="
  M 335.77 36.63
  Q 336.52 36.63 336.68 36.65
  A 0.86 0.85 -4.8 0 1 337.40 37.26
  L 339.45 44.20
  A 0.15 0.15 0.0 0 0 339.73 44.20
  L 341.94 36.99
  A 0.52 0.51 -81.6 0 1 342.43 36.62
  L 345.05 36.62
  A 0.32 0.32 0.0 0 1 345.35 37.04
  L 341.73 48.87
  A 1.98 1.98 0.0 0 1 337.94 48.83
  Q 336.89 45.12 335.94 42.06
  Q 335.89 41.88 335.77 41.88
  Q 335.65 41.88 335.59 42.06
  Q 334.65 45.12 333.59 48.83
  A 1.98 1.98 0.0 0 1 329.80 48.87
  L 326.19 37.04
  A 0.32 0.32 0.0 0 1 326.49 36.62
  L 329.11 36.62
  A 0.52 0.51 81.6 0 1 329.60 36.99
  L 331.81 44.20
  A 0.15 0.15 0.0 0 0 332.09 44.20
  L 334.14 37.26
  A 0.86 0.85 4.8 0 1 334.86 36.65
  Q 335.02 36.63 335.77 36.63
  Z"
/>
<path fill="#f4f6fc" d="
  M 354.78 48.58
  C 352.37 52.18 345.54 50.06 346.35 45.07
  C 346.89 41.79 351.22 41.96 354.06 42.12
  A 0.80 0.80 0.0 0 0 354.76 40.86
  L 354.35 40.26
  A 2.04 2.03 -14.0 0 0 352.93 39.41
  Q 350.75 39.14 349.78 40.66
  A 0.60 0.58 -58.4 0 1 348.99 40.86
  L 347.16 39.80
  A 0.54 0.54 0.0 0 1 347.00 39.00
  C 350.26 34.81 357.42 35.60 358.06 41.50
  Q 358.23 43.08 358.14 49.52
  A 0.49 0.49 0.0 0 1 357.65 50.00
  L 355.78 50.00
  A 0.49 0.49 0.0 0 1 355.29 49.45
  Q 355.39 48.72 355.36 48.65
  A 0.33 0.33 0.0 0 0 354.78 48.58
  Z
  M 354.23 44.40
  Q 351.73 44.37 350.56 44.74
  A 1.30 1.27 -29.9 0 0 349.96 46.83
  C 351.41 48.38 354.26 46.86 354.75 45.09
  A 0.55 0.55 0.0 0 0 354.23 44.40
  Z"
/>
<path fill="#f4f6fc" d="
  M 364.98 38.24
  Q 366.93 35.32 370.07 36.94
  A 0.57 0.57 0.0 0 1 370.34 37.64
  L 369.71 39.34
  A 0.83 0.82 15.6 0 1 368.77 39.86
  C 363.66 38.83 364.50 46.39 364.69 49.44
  A 0.52 0.52 0.0 0 1 364.17 49.99
  L 361.87 49.99
  A 0.49 0.49 0.0 0 1 361.38 49.50
  L 361.38 37.09
  A 0.47 0.47 0.0 0 1 361.85 36.62
  L 364.25 36.62
  A 0.35 0.35 0.0 0 1 364.60 36.97
  L 364.60 38.12
  A 0.21 0.21 0.0 0 0 364.98 38.24
  Z"
/>
<path fill="#102037" d="
  M 222.17 42.59
  L 224.18 37.07
  A 0.32 0.32 0.0 0 1 224.78 37.07
  L 226.79 42.59
  A 0.32 0.32 0.0 0 1 226.49 43.02
  L 222.47 43.02
  A 0.32 0.32 0.0 0 1 222.17 42.59
  Z"
/>
<path fill="#102037" d="
  M 316.72 37.93
  Q 316.80 38.24 316.52 38.63
  A 0.31 0.30 62.9 0 1 315.97 38.45
  Q 315.97 37.89 316.04 37.79
  A 0.39 0.38 56.4 0 1 316.72 37.93
  Z"
/>
<ellipse fill="#102037" cx="0.00" cy="0.00" transform="translate(299.24,43.35) rotate(-90.0)" rx="4.09" ry="3.43"/>
<path fill="#102037" d="
  M 375.01 42.08
  A 0.14 0.14 0.0 0 1 374.87 41.94
  L 374.87 41.86
  A 2.71 2.58 -0.4 0 1 377.56 39.26
  L 377.84 39.26
  A 2.71 2.58 -0.4 0 1 380.57 41.82
  L 380.57 41.90
  A 0.14 0.14 0.0 0 1 380.43 42.04
  L 375.01 42.08
  Z"
/>
<path fill="#2f82ff" d="
  M 144.28 51.73
  C 136.64 49.27 128.33 45.35 120.21 46.59
  Q 117.42 46.16 115.08 46.56
  L 111.37 45.93
  A 0.34 0.34 0.0 0 1 111.14 45.41
  L 112.19 43.74
  Q 124.21 41.55 131.74 41.59
  Q 135.02 41.60 138.41 44.40
  Q 140.24 45.91 144.28 51.73
  Z"
/>
<path fill="#102037" d="
  M 354.75 45.09
  C 354.26 46.86 351.41 48.38 349.96 46.83
  A 1.30 1.27 -29.9 0 1 350.56 44.74
  Q 351.73 44.37 354.23 44.40
  A 0.55 0.55 0.0 0 1 354.75 45.09
  Z"
/>
<path fill="#233dff" d="
  M 177.10 48.71
  L 189.51 45.26
  A 0.34 0.34 0.0 0 1 189.94 45.59
  L 189.94 53.62
  A 0.34 0.34 0.0 0 1 189.48 53.94
  L 177.08 49.35
  A 0.34 0.34 0.0 0 1 177.10 48.71
  Z"
/>
<path fill="#2a63ff" d="
  M 144.28 51.73
  Q 148.79 56.15 152.27 61.55
  A 0.38 0.38 0.0 0 0 152.83 61.63
  L 153.04 61.46
  A 0.27 0.26 -33.8 0 0 153.11 61.13
  L 147.68 50.63
  C 155.53 52.38 163.58 57.16 170.32 61.43
  Q 177.22 65.80 189.33 76.84
  Q 184.25 80.21 179.52 83.28
  Q 178.40 84.01 175.32 85.26
  Q 170.21 84.14 166.26 80.64
  Q 153.09 64.11 137.65 53.83
  Q 130.34 48.96 120.21 46.59
  C 128.33 45.35 136.64 49.27 144.28 51.73
  Z"
/>
<path fill="#2f82ff" d="
  M 174.44 60.81
  L 189.91 72.06
  L 189.83 76.80
  Q 188.52 76.74 189.33 76.84
  Q 177.22 65.80 170.32 61.43
  C 163.58 57.16 155.53 52.38 147.68 50.63
  Q 146.52 48.81 146.02 46.85
  A 0.34 0.34 0.0 0 1 146.46 46.44
  C 152.12 48.31 156.41 50.67 162.56 53.77
  Q 164.42 54.71 168.43 57.36
  Q 171.32 59.27 174.44 60.81
  Z"
/>
<path fill="#233dff" d="
  M 120.21 46.59
  Q 130.34 48.96 137.65 53.83
  Q 153.09 64.11 166.26 80.64
  L 127.57 59.84
  L 120.40 55.84
  L 109.69 49.87
  L 115.08 46.56
  Q 117.42 46.16 120.21 46.59
  Z"
/>
<rect fill="#f4f6fc" x="-1.69" y="-1.78" transform="translate(237.83,48.21) rotate(0.1)" width="3.38" height="3.56" rx="0.38"/>
<rect fill="#f4f6fc" x="-1.69" y="-1.78" transform="translate(265.83,48.20) rotate(-0.2)" width="3.38" height="3.56" rx="0.39"/>
<path fill="#2f82ff" d="
  M 109.69 49.87
  L 120.40 55.84
  C 114.97 69.09 114.25 81.49 113.67 96.16
  A 0.23 0.22 -28.9 0 0 114.09 96.28
  L 116.17 92.69
  A 0.32 0.32 0.0 0 1 116.61 92.57
  L 116.88 92.73
  A 0.41 0.40 29.2 0 1 117.04 93.27
  Q 113.39 100.02 114.78 108.88
  C 115.85 115.69 116.45 122.23 121.11 126.48
  Q 121.71 128.79 123.27 130.79
  Q 123.81 132.81 124.99 134.39
  A 0.44 0.44 0.0 0 1 124.62 135.10
  L 119.18 134.80
  Q 110.85 132.16 107.91 124.06
  L 100.23 81.45
  Q 105.51 76.96 106.29 70.77
  Q 107.93 57.62 109.69 49.87
  Z"
/>
<path fill="#233dff" d="
  M 94.67 75.31
  L 84.76 65.73
  A 0.32 0.32 0.0 0 1 84.70 65.36
  L 90.73 52.98
  A 0.32 0.32 0.0 0 1 91.34 53.06
  L 95.21 75.02
  A 0.32 0.32 0.0 0 1 94.67 75.31
  Z"
/>
<path fill="#3190ff" d="
  M 120.40 55.84
  L 127.57 59.84
  L 127.61 70.04
  Q 120.57 87.51 119.02 105.51
  Q 118.10 116.12 121.11 126.48
  C 116.45 122.23 115.85 115.69 114.78 108.88
  Q 113.39 100.02 117.04 93.27
  A 0.41 0.40 29.2 0 0 116.88 92.73
  L 116.61 92.57
  A 0.32 0.32 0.0 0 0 116.17 92.69
  L 114.09 96.28
  A 0.23 0.22 -28.9 0 1 113.67 96.16
  C 114.25 81.49 114.97 69.09 120.40 55.84
  Z"
/>
<path fill="#f4f6fc" d="
  M 228.74 60.86
  A 0.44 0.43 -33.1 0 1 228.61 61.47
  L 226.56 62.74
  A 0.59 0.57 -32.9 0 1 225.77 62.58
  C 224.58 60.83 222.54 60.26 221.18 61.90
  A 1.87 1.71 31.9 0 0 221.95 64.62
  C 225.85 66.48 229.44 67.41 229.82 70.89
  C 230.67 78.61 218.29 79.46 216.18 72.04
  A 0.52 0.52 0.0 0 1 216.59 71.38
  L 219.13 70.98
  A 0.46 0.46 0.0 0 1 219.65 71.33
  C 220.25 73.85 224.47 75.61 226.06 72.91
  A 2.14 2.07 -57.5 0 0 225.49 70.12
  C 222.44 67.99 215.85 67.32 217.64 61.54
  C 219.15 56.62 226.14 57.02 228.74 60.86
  Z"
/>
<rect fill="#f4f6fc" x="-1.74" y="-1.53" transform="translate(272.56,59.68) rotate(0.3)" width="3.48" height="3.06" rx="0.34"/>
<path fill="#3190ff" d="
  M 189.93 64.94
  L 189.91 72.06
  L 174.44 60.81
  Q 173.02 59.62 172.90 58.83
  A 0.41 0.41 0.0 0 1 173.45 58.39
  L 189.93 64.94
  Z"
/>
<path fill="#102037" d="
  M 166.26 80.64
  Q 170.21 84.14 175.32 85.26
  L 136.95 108.92
  L 128.84 113.71
  L 127.61 70.04
  L 127.57 59.84
  L 166.26 80.64
  Z
  M 140.84 93.49
  Q 141.28 94.08 142.16 94.18
  A 1.59 1.57 33.0 0 0 143.13 93.98
  Q 149.44 90.31 154.94 86.67
  A 2.04 1.95 -28.0 0 0 155.73 84.27
  Q 155.29 83.21 153.98 82.52
  Q 148.41 79.57 142.05 76.37
  Q 140.40 76.49 139.67 77.77
  A 1.70 1.61 60.4 0 0 139.46 78.62
  Q 139.70 85.55 140.01 92.44
  Q 140.03 92.99 140.84 93.49
  Z"
/>
<path fill="#f4f6fc" d="
  M 235.61 71.48
  A 0.48 0.47 -8.1 0 0 235.15 72.09
  C 235.89 74.68 238.63 74.62 240.74 73.41
  Q 241.97 72.72 243.36 74.55
  A 0.55 0.55 0.0 0 1 243.31 75.28
  C 239.70 78.80 233.41 77.62 231.90 72.78
  C 230.27 67.55 233.76 62.50 239.59 63.58
  A 4.73 4.72 84.4 0 1 243.12 66.49
  L 244.34 69.54
  A 1.43 1.43 0.0 0 1 243.00 71.49
  L 235.61 71.48
  Z
  M 235.27 69.07
  L 240.67 69.05
  A 0.14 0.14 0.0 0 0 240.81 68.91
  L 240.81 68.83
  A 2.64 2.56 -0.2 0 0 238.17 66.28
  L 237.77 66.28
  A 2.64 2.56 -0.2 0 0 235.13 68.85
  L 235.13 68.93
  A 0.14 0.14 0.0 0 0 235.27 69.07
  Z"
/>
<path fill="#f4f6fc" d="
  M 250.51 64.95
  Q 251.96 62.65 255.05 63.73
  A 0.47 0.44 -35.3 0 0 255.26 63.76
  L 258.58 63.57
  A 0.56 0.54 -11.4 0 1 259.13 63.92
  L 262.34 71.94
  A 0.15 0.14 -46.5 0 0 262.61 71.93
  L 265.56 63.96
  A 0.52 0.51 9.5 0 1 266.05 63.62
  L 268.65 63.62
  A 0.25 0.25 0.0 0 1 268.88 63.95
  L 264.43 76.00
  A 2.06 2.06 0.0 0 1 260.58 76.05
  L 256.16 64.99
  A 0.41 0.41 0.0 0 0 255.37 65.08
  Q 255.24 65.94 254.86 66.48
  Q 254.60 66.85 253.52 66.76
  C 248.99 66.39 249.67 73.53 249.93 76.43
  A 0.51 0.51 0.0 0 1 249.42 76.99
  L 247.12 76.99
  A 0.50 0.49 0.0 0 1 246.62 76.50
  L 246.62 64.04
  A 0.42 0.42 0.0 0 1 247.04 63.62
  L 249.42 63.62
  A 0.50 0.49 -86.9 0 1 249.91 64.17
  Q 249.83 64.91 249.84 64.92
  A 0.39 0.38 -42.0 0 0 250.51 64.95
  Z"
/>
<rect fill="#f4f6fc" x="270.90" y="63.63" width="3.30" height="13.36" rx="0.34"/>
<path fill="#f4f6fc" d="
  M 280.12 70.30
  C 280.11 71.77 280.64 73.59 282.21 74.05
  Q 284.60 74.75 285.43 72.65
  A 0.59 0.58 -69.3 0 1 286.17 72.31
  L 288.33 73.11
  A 0.55 0.54 -66.7 0 1 288.63 73.86
  C 285.51 80.22 276.70 77.27 276.78 70.26
  C 276.87 63.25 285.75 60.51 288.71 66.95
  A 0.55 0.54 68.1 0 1 288.40 67.69
  L 286.22 68.44
  A 0.59 0.58 70.7 0 1 285.49 68.08
  Q 284.71 65.96 282.30 66.60
  C 280.72 67.03 280.14 68.83 280.12 70.30
  Z"
/>
<path fill="#f4f6fc" d="
  M 294.37 71.49
  A 0.48 0.47 -8.2 0 0 293.91 72.10
  C 294.66 74.70 297.39 74.63 299.51 73.42
  Q 300.74 72.72 302.13 74.54
  A 0.55 0.55 0.0 0 1 302.08 75.27
  C 298.48 78.81 292.18 77.65 290.66 72.80
  C 289.02 67.58 292.49 62.51 298.33 63.58
  A 4.73 4.73 0.0 0 1 301.88 66.48
  L 303.10 69.53
  A 1.43 1.43 0.0 0 1 301.77 71.49
  L 294.37 71.49
  Z
  M 294.09 69.06
  L 299.35 69.04
  A 0.20 0.20 0.0 0 0 299.55 68.84
  L 299.55 68.71
  A 2.73 2.45 -0.3 0 0 296.80 66.27
  L 296.60 66.27
  A 2.73 2.45 -0.3 0 0 293.89 68.73
  L 293.89 68.86
  A 0.20 0.20 0.0 0 0 294.09 69.06
  Z"
/>
<path fill="#f4f6fc" d="
  M 312.13 67.39
  C 311.17 66.24 309.78 65.31 308.50 66.67
  A 0.80 0.80 0.0 0 0 308.85 67.99
  C 311.54 68.81 314.73 69.52 314.83 72.50
  Q 314.95 76.28 311.04 77.08
  Q 306.59 78.00 304.17 73.92
  A 0.43 0.42 -26.5 0 1 304.38 73.31
  L 306.32 72.54
  A 0.41 0.40 63.4 0 1 306.82 72.71
  Q 308.36 75.21 310.77 74.21
  A 1.25 1.25 0.0 0 0 310.58 71.84
  C 308.02 71.23 305.08 70.65 305.06 67.73
  C 305.03 62.33 312.00 62.40 314.73 65.79
  A 0.63 0.63 0.0 0 1 314.47 66.77
  L 312.62 67.51
  A 0.43 0.42 -31.1 0 1 312.13 67.39
  Z"
/>
<path fill="#102037" d="
  M 235.27 69.07
  A 0.14 0.14 0.0 0 1 235.13 68.93
  L 235.13 68.85
  A 2.64 2.56 -0.2 0 1 237.77 66.28
  L 238.17 66.28
  A 2.64 2.56 -0.2 0 1 240.81 68.83
  L 240.81 68.91
  A 0.14 0.14 0.0 0 1 240.67 69.05
  L 235.27 69.07
  Z"
/>
<path fill="#102037" d="
  M 294.09 69.06
  A 0.20 0.20 0.0 0 1 293.89 68.86
  L 293.89 68.73
  A 2.73 2.45 -0.3 0 1 296.60 66.27
  L 296.80 66.27
  A 2.73 2.45 -0.3 0 1 299.55 68.71
  L 299.55 68.84
  A 0.20 0.20 0.0 0 1 299.35 69.04
  L 294.09 69.06
  Z"
/>
<path fill="#38b6ff" d="
  M 127.61 70.04
  L 128.84 113.71
  L 129.44 133.99
  L 123.27 130.79
  Q 121.71 128.79 121.11 126.48
  Q 118.10 116.12 119.02 105.51
  Q 120.57 87.51 127.61 70.04
  Z"
/>
<path fill="#233dff" d="
  M 142.05 76.37
  Q 147.38 86.31 140.84 93.49
  Q 140.03 92.99 140.01 92.44
  Q 139.70 85.55 139.46 78.62
  A 1.70 1.61 60.4 0 1 139.67 77.77
  Q 140.40 76.49 142.05 76.37
  Z"
/>
<path fill="#3190ff" d="
  M 140.84 93.49
  Q 147.38 86.31 142.05 76.37
  Q 148.41 79.57 153.98 82.52
  Q 155.29 83.21 155.73 84.27
  A 2.04 1.95 -28.0 0 1 154.94 86.67
  Q 149.44 90.31 143.13 93.98
  A 1.59 1.57 33.0 0 1 142.16 94.18
  Q 141.28 94.08 140.84 93.49
  Z"
/>
<path fill="#655aff" d="
  M 189.83 76.80
  L 189.88 85.91
  Q 182.12 93.80 172.51 98.23
  Q 155.71 106.00 136.95 108.92
  L 175.32 85.26
  Q 178.40 84.01 179.52 83.28
  Q 184.25 80.21 189.33 76.84
  Q 188.52 76.74 189.83 76.80
  Z"
/>
<path fill="#5777ff" d="
  M 189.88 85.91
  L 189.89 89.86
  L 179.60 102.83
  A 2.32 2.27 -74.9 0 1 178.16 103.68
  L 160.74 106.54
  A 0.02 0.02 0.0 0 1 160.72 106.52
  L 160.71 106.48
  A 0.15 0.15 0.0 0 0 160.85 106.63
  L 173.10 107.48
  A 0.58 0.58 0.0 0 1 173.47 108.47
  Q 164.00 117.63 158.92 121.42
  C 155.16 124.23 150.10 124.03 145.32 124.38
  A 0.23 0.23 0.0 0 0 145.28 124.84
  L 148.95 125.77
  A 0.31 0.31 0.0 0 1 149.01 126.35
  Q 139.77 130.82 129.44 133.99
  L 128.84 113.71
  L 136.95 108.92
  Q 155.71 106.00 172.51 98.23
  Q 182.12 93.80 189.88 85.91
  Z"
/>
<path fill="#389aee" d="
  M 101.09 104.05
  Q 100.68 107.34 101.45 110.90
  C 104.82 126.34 111.69 139.68 128.16 144.09
  A 1.53 1.53 0.0 0 0 129.42 143.87
  L 138.16 137.79
  A 0.38 0.37 21.0 0 0 137.86 137.12
  Q 128.97 139.10 120.39 136.64
  Q 119.27 136.32 119.18 134.80
  L 124.62 135.10
  A 0.44 0.44 0.0 0 0 124.99 134.39
  Q 123.81 132.81 123.27 130.79
  L 129.44 133.99
  Q 139.77 130.82 149.01 126.35
  A 0.31 0.31 0.0 0 0 148.95 125.77
  L 145.28 124.84
  A 0.23 0.23 0.0 0 1 145.32 124.38
  C 150.10 124.03 155.16 124.23 158.92 121.42
  Q 164.00 117.63 173.47 108.47
  A 0.58 0.58 0.0 0 0 173.10 107.48
  L 160.85 106.63
  A 0.15 0.15 0.0 0 1 160.71 106.48
  L 160.72 106.52
  A 0.02 0.02 0.0 0 0 160.74 106.54
  L 178.16 103.68
  A 2.32 2.27 -74.9 0 0 179.60 102.83
  L 189.89 89.86
  L 189.89 101.76
  A 1.07 1.05 -20.4 0 1 189.51 102.57
  Q 155.09 131.64 133.97 149.96
  Q 130.21 153.22 125.36 153.88
  A 2.40 2.37 45.4 0 1 124.64 153.87
  Q 105.97 151.12 103.02 150.70
  C 98.72 150.07 98.18 146.95 98.12 142.98
  C 97.97 134.80 98.11 128.38 97.63 119.68
  Q 96.80 104.61 97.07 93.75
  Q 97.10 92.54 96.54 87.12
  A 0.21 0.21 0.0 0 1 96.79 86.89
  L 97.29 87.00
  A 0.01 0.01 0.0 0 1 97.30 87.01
  L 101.09 104.05
  Z"
/>
<path fill="#38b6ff" d="
  M 314.14 101.21
  A 0.30 0.29 18.8 0 1 314.31 101.55
  L 313.84 103.39
  A 0.19 0.19 0.0 0 1 313.58 103.52
  Q 311.52 102.65 309.74 102.95
  A 0.70 0.70 0.0 0 0 309.62 104.29
  C 311.85 105.10 315.63 105.11 314.78 108.76
  C 314.07 111.82 309.06 111.40 306.84 110.50
  A 0.84 0.83 -72.0 0 1 306.35 109.52
  L 306.55 108.70
  A 0.80 0.79 21.4 0 1 307.70 108.20
  Q 309.58 109.21 311.36 108.85
  A 0.74 0.73 46.3 0 0 311.39 107.42
  C 309.22 106.85 306.32 106.48 306.26 104.09
  C 306.15 100.06 311.44 100.10 314.14 101.21
  Z"
/>
<path fill="#38b6ff" d="
  M 383.74 106.15
  L 383.74 109.43
  A 0.88 0.87 77.1 0 1 383.25 110.22
  C 379.54 112.06 374.39 111.27 373.87 106.66
  C 373.25 101.09 379.39 98.89 383.34 101.82
  A 0.69 0.68 -56.9 0 1 383.52 102.71
  L 383.16 103.33
  A 1.07 1.06 32.2 0 1 381.64 103.67
  C 376.88 100.41 373.89 109.12 380.50 108.67
  A 0.70 0.70 0.0 0 0 381.15 107.97
  L 381.15 106.23
  A 0.60 0.60 0.0 0 1 381.75 105.63
  L 383.21 105.63
  A 0.53 0.52 -0.0 0 1 383.74 106.15
  Z"
/>
<path fill="#38b6ff" d="
  M 221.26 108.68
  Q 223.33 108.69 223.22 105.77
  Q 223.13 103.27 223.18 101.20
  A 0.51 0.51 0.0 0 1 223.69 100.71
  L 225.59 100.71
  A 0.51 0.50 -0.3 0 1 226.10 101.20
  C 226.17 105.33 227.17 111.21 221.26 111.21
  C 215.35 111.20 216.36 105.32 216.44 101.19
  A 0.51 0.50 0.4 0 1 216.95 100.70
  L 218.85 100.70
  A 0.51 0.51 0.0 0 1 219.36 101.20
  Q 219.40 103.27 219.31 105.76
  Q 219.20 108.68 221.26 108.68
  Z"
/>
<path fill="#38b6ff" d="
  M 235.25 101.99
  A 1.52 1.52 0.0 0 1 237.95 101.03
  L 241.61 105.54
  A 0.32 0.31 25.8 0 0 242.17 105.35
  L 242.17 101.25
  A 0.53 0.53 0.0 0 1 242.70 100.72
  L 244.52 100.72
  A 0.54 0.53 -0.0 0 1 245.06 101.25
  L 245.06 109.72
  A 1.53 1.52 -64.5 0 1 242.35 110.68
  L 238.69 106.17
  A 0.32 0.31 25.8 0 0 238.13 106.36
  L 238.13 110.47
  A 0.53 0.53 0.0 0 1 237.60 111.00
  L 235.80 111.00
  A 0.55 0.55 0.0 0 1 235.25 110.45
  L 235.25 101.99
  Z"
/>
<path fill="#38b6ff" d="
  M 261.88 111.00
  L 254.99 111.00
  A 0.48 0.48 0.0 0 1 254.51 110.52
  L 254.51 101.18
  A 0.48 0.48 0.0 0 1 254.99 100.70
  L 256.96 100.70
  A 0.48 0.48 0.0 0 1 257.44 101.18
  L 257.44 108.20
  A 0.48 0.48 0.0 0 0 257.92 108.68
  L 261.88 108.68
  A 0.48 0.48 0.0 0 1 262.36 109.16
  L 262.36 110.52
  A 0.48 0.48 0.0 0 1 261.88 111.00
  Z"
/>
<path fill="#38b6ff" d="
  M 278.26 105.81
  Q 278.26 106.24 278.08 106.55
  A 0.78 0.77 15.4 0 1 277.41 106.93
  L 274.28 106.93
  A 0.67 0.67 0.0 0 0 273.61 107.60
  L 273.61 107.92
  A 0.77 0.77 0.0 0 0 274.38 108.69
  L 278.34 108.69
  A 0.67 0.66 90.0 0 1 279.00 109.36
  L 279.00 110.26
  A 0.74 0.74 0.0 0 1 278.26 111.00
  L 271.54 111.00
  A 0.73 0.72 89.5 0 1 270.82 110.28
  Q 270.81 109.63 270.78 105.86
  Q 270.76 102.10 270.76 101.45
  A 0.73 0.72 89.7 0 1 271.47 100.72
  L 278.19 100.63
  A 0.74 0.74 0.0 0 1 278.94 101.36
  L 278.95 102.26
  A 0.67 0.66 89.2 0 1 278.30 102.94
  L 274.34 102.99
  A 0.77 0.77 0.0 0 0 273.58 103.77
  L 273.59 104.09
  A 0.67 0.67 0.0 0 0 274.27 104.75
  L 277.39 104.71
  A 0.78 0.77 -16.2 0 1 278.07 105.08
  Q 278.26 105.39 278.26 105.81
  Z"
/>
<path fill="#38b6ff" d="
  M 292.75 100.70
  Q 293.41 100.70 293.92 100.78
  A 1.01 1.00 -6.2 0 1 294.69 101.39
  L 298.32 110.48
  A 0.37 0.37 0.0 0 1 298.05 110.98
  Q 295.49 111.55 295.20 109.67
  A 0.80 0.79 87.0 0 0 294.46 109.00
  Q 294.20 108.98 292.75 108.98
  Q 291.31 108.98 291.05 109.00
  A 0.80 0.79 -87.0 0 0 290.31 109.67
  Q 290.01 111.55 287.45 110.98
  A 0.37 0.37 0.0 0 1 287.18 110.48
  L 290.82 101.39
  A 1.01 1.00 6.2 0 1 291.58 100.78
  Q 292.10 100.70 292.75 100.70
  Z
  M 292.73 106.93
  Q 293.39 106.91 293.44 106.89
  A 0.65 0.64 65.7 0 0 293.76 106.04
  Q 292.91 104.09 292.64 104.10
  Q 292.38 104.11 291.65 106.11
  A 0.65 0.64 -69.4 0 0 292.02 106.93
  Q 292.07 106.95 292.73 106.93
  Z"
/>
<path fill="#38b6ff" d="
  M 328.67 104.62
  Q 329.38 104.62 330.08 104.52
  A 0.77 0.77 0.0 0 0 330.73 103.70
  L 330.54 101.35
  A 0.63 0.62 88.4 0 1 331.18 100.67
  L 332.98 100.70
  A 0.57 0.57 0.0 0 1 333.56 101.26
  Q 333.56 101.45 333.56 105.83
  Q 333.56 110.20 333.56 110.39
  A 0.57 0.57 0.0 0 1 332.99 110.96
  L 331.19 110.99
  A 0.63 0.62 -88.4 0 1 330.55 110.31
  L 330.74 107.96
  A 0.77 0.77 0.0 0 0 330.08 107.14
  Q 329.38 107.04 328.67 107.04
  Q 327.95 107.04 327.26 107.14
  A 0.77 0.77 0.0 0 0 326.60 107.96
  L 326.79 110.31
  A 0.63 0.62 88.4 0 1 326.15 110.99
  L 324.35 110.96
  A 0.57 0.57 0.0 0 1 323.78 110.39
  Q 323.77 110.20 323.77 105.83
  Q 323.77 101.46 323.78 101.27
  A 0.57 0.57 0.0 0 1 324.35 100.70
  L 326.15 100.67
  A 0.63 0.62 -88.4 0 1 326.79 101.35
  L 326.60 103.70
  A 0.77 0.77 0.0 0 0 327.26 104.52
  Q 327.95 104.62 328.67 104.62
  Z"
/>
<rect fill="#38b6ff" x="342.80" y="100.68" width="2.88" height="10.32" rx="0.46"/>
<path fill="#38b6ff" d="
  M 364.81 101.23
  L 364.81 109.70
  A 1.54 1.54 0.0 0 1 362.08 110.67
  L 358.38 106.10
  A 0.28 0.27 -64.7 0 0 357.89 106.28
  L 357.89 110.48
  A 0.52 0.52 0.0 0 1 357.37 111.00
  L 355.47 111.00
  A 0.47 0.46 -90.0 0 1 355.01 110.53
  L 355.01 101.97
  A 1.51 1.51 0.0 0 1 357.70 101.02
  L 361.43 105.62
  A 0.28 0.27 25.7 0 0 361.92 105.45
  L 361.92 101.25
  A 0.53 0.53 0.0 0 1 362.45 100.72
  L 364.30 100.72
  A 0.51 0.51 0.0 0 1 364.81 101.23
  Z"
/>
<path fill="#102037" d="
  M 292.64 104.10
  Q 292.91 104.09 293.76 106.04
  A 0.65 0.64 65.7 0 1 293.44 106.89
  Q 293.39 106.91 292.73 106.93
  Q 292.07 106.95 292.02 106.93
  A 0.65 0.64 -69.4 0 1 291.65 106.11
  Q 292.38 104.11 292.64 104.10
  Z"
/>
<path fill="#38b6ff" d="
  M 101.09 104.05
  Q 103.57 114.38 107.91 124.06
  Q 110.85 132.16 119.18 134.80
  Q 119.27 136.32 120.39 136.64
  Q 128.97 139.10 137.86 137.12
  A 0.38 0.37 21.0 0 1 138.16 137.79
  L 129.42 143.87
  A 1.53 1.53 0.0 0 1 128.16 144.09
  C 111.69 139.68 104.82 126.34 101.45 110.90
  Q 100.68 107.34 101.09 104.05
  Z"
/>
<path fill="#389aee" d="
  M 168.15 126.60
  L 189.69 105.06
  A 0.16 0.16 0.0 0 1 189.96 105.18
  L 189.96 112.97
  A 0.48 0.48 0.0 0 1 189.73 113.38
  L 168.22 126.70
  A 0.06 0.06 0.0 0 1 168.15 126.60
  Z"
/>
<path fill="#38b6ff" d="
  M 277.92 125.87
  A 5.72 5.36 0.0 0 1 272.20 131.23
  A 5.72 5.36 0.0 0 1 266.48 125.87
  A 5.72 5.36 0.0 0 1 272.20 120.51
  A 5.72 5.36 0.0 0 1 277.92 125.87
  Z
  M 275.02 125.87
  A 2.83 2.83 0.0 0 0 272.19 123.04
  A 2.83 2.83 0.0 0 0 269.36 125.87
  A 2.83 2.83 0.0 0 0 272.19 128.70
  A 2.83 2.83 0.0 0 0 275.02 125.87
  Z"
/>
<path fill="#38b6ff" d="
  M 364.1700 125.8600
  A 5.72 5.36 -0.1 0 1 358.4594 131.2300
  A 5.72 5.36 -0.1 0 1 352.7300 125.8800
  A 5.72 5.36 -0.1 0 1 358.4406 120.5100
  A 5.72 5.36 -0.1 0 1 364.1700 125.8600
  Z
  M 361.28 125.87
  A 2.84 2.84 0.0 0 0 358.44 123.03
  A 2.84 2.84 0.0 0 0 355.60 125.87
  A 2.84 2.84 0.0 0 0 358.44 128.71
  A 2.84 2.84 0.0 0 0 361.28 125.87
  Z"
/>
<rect fill="#38b6ff" x="-1.46" y="-5.14" transform="translate(217.98,125.85) rotate(-0.1)" width="2.92" height="10.28" rx="0.39"/>
<path fill="#38b6ff" d="
  M 236.19 120.71
  L 238.04 120.70
  A 0.51 0.51 0.0 0 1 238.55 121.21
  L 238.58 129.69
  A 1.54 1.54 0.0 0 1 235.85 130.67
  L 232.13 126.10
  A 0.28 0.27 -64.9 0 0 231.64 126.29
  L 231.65 130.49
  A 0.52 0.52 0.0 0 1 231.13 131.01
  L 229.23 131.02
  A 0.47 0.46 89.8 0 1 228.77 130.55
  L 228.75 121.98
  A 1.52 1.51 25.3 0 1 231.44 121.02
  L 235.18 125.62
  A 0.28 0.27 25.6 0 0 235.67 125.44
  L 235.66 121.24
  A 0.53 0.53 0.0 0 1 236.19 120.71
  Z"
/>
<path fill="#38b6ff" d="
  M 255.45 120.72
  L 257.30 120.72
  A 0.51 0.51 0.0 0 1 257.81 121.23
  L 257.80 129.69
  A 1.54 1.53 -64.5 0 1 255.08 130.66
  L 251.38 126.10
  A 0.28 0.27 -64.7 0 0 250.89 126.28
  L 250.89 130.47
  A 0.52 0.52 0.0 0 1 250.37 130.99
  L 248.47 130.99
  A 0.47 0.46 -90.0 0 1 248.02 130.52
  L 248.02 121.97
  A 1.51 1.51 0.0 0 1 250.71 121.02
  L 254.43 125.62
  A 0.28 0.27 25.7 0 0 254.92 125.45
  L 254.92 121.25
  A 0.53 0.53 0.0 0 1 255.45 120.72
  Z"
/>
<path fill="#38b6ff" d="
  M 291.39 126.95
  Q 291.59 126.95 291.66 126.77
  Q 293.85 121.60 293.98 121.26
  A 0.84 0.84 0.0 0 1 294.76 120.73
  L 296.69 120.71
  A 0.39 0.39 0.0 0 1 297.05 121.25
  L 293.07 130.44
  A 1.00 0.98 -83.3 0 1 292.36 131.01
  Q 292.31 131.02 291.37 131.01
  Q 290.44 131.01 290.38 131.00
  A 1.00 0.98 83.9 0 1 289.68 130.42
  L 285.79 121.20
  A 0.39 0.39 0.0 0 1 286.15 120.66
  L 288.08 120.70
  A 0.84 0.84 0.0 0 1 288.86 121.24
  Q 288.99 121.58 291.12 126.76
  Q 291.20 126.94 291.39 126.95
  Z"
/>
<path fill="#38b6ff" d="
  M 310.25 128.96
  Q 308.81 128.97 308.55 128.98
  A 0.80 0.79 -87.1 0 0 307.81 129.65
  Q 307.52 131.53 304.97 130.96
  A 0.37 0.37 0.0 0 1 304.70 130.47
  L 308.31 121.39
  A 1.00 1.00 0.0 0 1 309.07 120.78
  Q 309.58 120.70 310.24 120.69
  Q 310.90 120.69 311.41 120.78
  A 1.00 1.00 0.0 0 1 312.17 121.39
  L 315.81 130.45
  A 0.37 0.37 0.0 0 1 315.54 130.95
  Q 312.99 131.52 312.69 129.65
  A 0.80 0.79 86.9 0 0 311.95 128.98
  Q 311.69 128.96 310.25 128.96
  Z
  M 310.21 126.93
  Q 310.73 126.95 310.85 126.93
  A 0.53 0.53 0.0 0 0 311.27 126.29
  Q 310.76 124.13 310.30 124.11
  Q 309.84 124.10 309.20 126.22
  A 0.53 0.53 0.0 0 0 309.58 126.89
  Q 309.70 126.92 310.21 126.93
  Z"
/>
<path fill="#38b6ff" d="
  M 327.92 120.69
  Q 330.11 120.71 331.73 120.70
  A 0.86 0.85 89.8 0 1 332.59 121.56
  L 332.59 122.27
  A 0.79 0.78 -0.0 0 1 331.80 123.05
  L 329.95 123.05
  A 0.56 0.56 0.0 0 0 329.39 123.61
  L 329.39 130.43
  A 0.58 0.58 0.0 0 1 328.85 131.01
  Q 328.66 131.02 327.91 131.02
  Q 327.17 131.02 326.97 131.01
  A 0.58 0.58 0.0 0 1 326.43 130.43
  L 326.44 123.61
  A 0.56 0.56 0.0 0 0 325.88 123.05
  L 324.03 123.05
  A 0.79 0.78 0.1 0 1 323.24 122.27
  L 323.24 121.56
  A 0.86 0.85 -89.8 0 1 324.10 120.70
  Q 325.72 120.71 327.92 120.69
  Z"
/>
<rect fill="#38b6ff" x="-1.45" y="-5.15" transform="translate(342.48,125.83) rotate(0.1)" width="2.90" height="10.30" rx="0.59"/>
<path fill="#38b6ff" d="
  M 380.45 120.72
  L 382.30 120.72
  A 0.51 0.51 0.0 0 1 382.81 121.23
  L 382.81 129.70
  A 1.54 1.54 0.0 0 1 380.08 130.66
  L 376.38 126.10
  A 0.28 0.27 -64.7 0 0 375.89 126.28
  L 375.89 130.47
  A 0.52 0.52 0.0 0 1 375.37 130.99
  L 373.47 130.99
  A 0.47 0.46 -90.0 0 1 373.01 130.52
  L 373.01 121.97
  A 1.51 1.51 0.0 0 1 375.70 121.02
  L 379.43 125.62
  A 0.28 0.27 25.7 0 0 379.92 125.45
  L 379.92 121.25
  A 0.53 0.53 0.0 0 1 380.45 120.72
  Z"
/>
<circle fill="#102037" cx="272.19" cy="125.87" r="2.83"/>
<circle fill="#102037" cx="358.44" cy="125.87" r="2.84"/>
<path fill="#102037" d="
  M 310.30 124.11
  Q 310.76 124.13 311.27 126.29
  A 0.53 0.53 0.0 0 1 310.85 126.93
  Q 310.73 126.95 310.21 126.93
  Q 309.70 126.92 309.58 126.89
  A 0.53 0.53 0.0 0 1 309.20 126.22
  Q 309.84 124.10 310.30 124.11
  Z"
/>
<path fill="#233dff" d="
  M 156.49 146.73
  L 142.32 147.89
  A 0.32 0.32 0.0 0 1 142.10 147.33
  L 159.54 133.19
  A 0.32 0.32 0.0 0 1 160.05 133.51
  L 156.78 146.49
  A 0.32 0.32 0.0 0 1 156.49 146.73
  Z"
/>
</svg>
